<svg xmlns="http://www.w3.org/2000/svg" width="46" height="52" viewBox="0 0 46 52">
  <path fill="#FFF" d="M43.6934075,26.7065735 C44.3739688,27.2389832 44.7651007,28.0368042 44.7651007,28.8945312 L44.7651007,49.2070312 C44.7651007,50.0647582 44.3739688,50.8625793 43.6926035,51.3953857 C43.6901916,51.3973694 43.6877796,51.3989563 43.6853677,51.4005432 C43.679338,51.4053039 43.6729062,51.409668 43.6668764,51.414032 C43.1740422,51.7913207 42.5606124,52 41.935123,52 L2.82997763,52 C2.19363462,52 1.56935123,51.7849731 1.07169318,51.394989 C0.391131826,50.8625793 -8.17124146e-14,50.0647582 -8.17124146e-14,49.2070312 L-8.17124146e-14,28.8945312 C-8.17124146e-14,28.0368042 0.391131826,27.2389832 1.0724972,26.7057801 C1.07410515,26.7049865 1.07571309,26.7037964 1.07732103,26.7026062 C1.08536074,26.6962586 1.09380241,26.6907043 1.10184212,26.6847535 C1.59387232,26.3094482 2.20569424,26.1015625 2.82997763,26.1015625 L5.40268456,26.1015625 L5.40268456,12.9662781 C5.40268456,12.5453492 5.74839206,12.2045594 6.17449664,12.2045594 C6.60060123,12.2045594 6.94630872,12.5453492 6.94630872,12.9662781 L6.94630872,29.4678039 L22.3825503,38.1732178 L37.8187919,29.4678039 L37.8187919,24.3242187 C37.8187919,23.9032898 38.1640975,23.5625 38.590604,23.5625 C39.0171106,23.5625 39.3624161,23.9032898 39.3624161,24.3242187 L39.3624161,26.1015625 L41.935123,26.1015625 C42.5577985,26.1015625 43.1684144,26.3086547 43.6608466,26.6831665 C43.6700923,26.6899109 43.679338,26.6962586 43.6885836,26.7033996 C43.6901916,26.7045898 43.6917994,26.7053832 43.6934075,26.7065735 Z M39.3624161,27.625 L39.3624161,28.5973816 L41.0869337,27.625 L39.3624161,27.625 Z M5.40268456,28.5973816 L5.40268456,27.625 L3.678167,27.625 L5.40268456,28.5973816 Z M2.0312325,50.2012329 C2.26076622,50.3817444 2.53693026,50.4765625 2.82997763,50.4765625 L41.0869337,50.4765625 L34.27931,46.6374207 C33.9090813,46.4287414 33.780848,45.9633789 33.9922923,45.5983887 C34.2033348,45.2330017 34.6748637,45.1060486 35.0450923,45.3147278 L43.0534466,49.8310852 C43.1615807,49.6434326 43.2214765,49.4299926 43.2214765,49.2070312 L43.2214765,28.8945312 C43.2214765,28.6715699 43.1615807,28.4581299 43.0534466,28.2704773 L23.9382341,39.0507812 L32.1877796,43.7032166 C32.5580082,43.9118957 32.6866436,44.3772582 32.4747972,44.7422485 C32.3324944,44.988617 32.0720078,45.1262817 31.8038835,45.1262817 C31.6740422,45.1262817 31.542593,45.0941467 31.4219974,45.0259094 L1.71165403,28.2704773 C1.60351997,28.4581299 1.54362416,28.6715699 1.54362416,28.8945312 L1.54362416,49.2070312 C1.54362416,49.5966187 1.72130168,49.9592285 2.0312325,50.2012329 Z M45.448074,9.27828982 C45.3290863,9.4564209 45.2056767,9.64089963 45.1735179,9.7611084 C45.1369372,9.89599609 45.1498007,10.1253051 45.1626643,10.3470764 C45.1871854,10.7810974 45.2177363,11.3214416 44.9323266,11.8078308 C44.6441031,12.3001709 44.1508669,12.5445557 43.7549112,12.7409363 C43.5567323,12.839325 43.3521218,12.9408875 43.2568512,13.0349121 C43.1615807,13.12854 43.0586724,13.3304748 42.959382,13.5260621 C42.7603992,13.9168396 42.5123742,14.4032287 42.0139122,14.6880799 C41.521078,14.9693604 40.9735738,14.939209 40.5338017,14.9154053 C40.3090919,14.9031067 40.0767442,14.8904114 39.9400692,14.926117 C39.8178656,14.958252 39.6309424,15.0796508 39.4504509,15.1970825 C39.421508,15.2157287 39.392163,15.2351684 39.3624161,15.2542114 L39.3624161,21.125 C39.3624161,21.5459289 39.0171106,21.8867188 38.590604,21.8867188 C38.1644994,21.8867188 37.8187919,21.5459289 37.8187919,21.125 L37.8187919,15.7290955 C37.3275657,15.6699829 36.9279922,15.4105225 36.5991681,15.1970825 C36.4182746,15.0796508 36.2313514,14.9578553 36.1095498,14.9257203 C35.9728747,14.8900146 35.7405272,14.90271 35.5158173,14.9150086 C35.0760451,14.939209 34.528541,14.9693604 34.0357068,14.6880799 C33.6916072,14.4916992 33.4672994,14.1993103 33.2956516,13.9085083 L27.6091652,13.9085083 L29.770239,16.0413208 L34.114094,16.0413208 C34.5406005,16.0413208 34.885906,16.3825074 34.885906,16.8030395 C34.885906,17.2239685 34.5406005,17.5647583 34.114094,17.5647583 L31.3138632,17.5647583 L34.6197916,20.8278504 C34.8449035,21.050415 34.9498218,21.3681946 34.9007795,21.678833 C34.8513352,21.9894715 34.6531564,22.2612305 34.3697567,22.4052429 L23.6262934,27.832489 C23.5712213,28.0264893 23.4675091,28.2042236 23.3195785,28.3506164 L23.0775832,28.589447 L25.8066625,31.2828369 C26.2440227,31.7144775 26.4848119,32.2881469 26.4848119,32.8983154 C26.4848119,33.5084839 26.2440227,34.08255 25.8066625,34.5141906 C25.3552328,34.9597168 24.7619023,35.1822815 24.1689737,35.1822815 C23.5760451,35.1822815 22.9831167,34.9597168 22.5312849,34.5141906 L19.8030097,31.8211975 L19.5614164,32.0596313 C19.3270589,32.290924 19.0195399,32.4063721 18.7116191,32.4063721 C18.4089241,32.4063721 18.106229,32.2940979 17.8734795,32.0699463 C17.2077916,32.5416565 16.4098504,32.7975464 15.5713087,32.7975464 C14.513283,32.7975464 13.517967,32.3908996 12.7694701,31.6521912 C12.0217771,30.9142761 11.610144,29.932373 11.610144,28.8873902 C11.610144,28.0606079 11.8686206,27.2734985 12.3465813,26.6157227 C11.8895239,26.1523438 11.8927398,25.4088746 12.357033,24.9502563 L16.115597,21.2412414 C16.1228328,21.2341004 16.1304705,21.2281494 16.1377062,21.2214051 L11.885906,21.2214051 C11.4598015,21.2214051 11.114094,20.8806152 11.114094,20.4596863 C11.114094,20.0391541 11.4598015,19.6979676 11.885906,19.6979676 L17.2837668,19.6979676 L18.3900308,17.5651551 L11.885906,17.5651551 C11.4598015,17.5651551 11.114094,17.2243652 11.114094,16.8034363 C11.114094,16.3829041 11.4598015,16.0417176 11.885906,16.0417176 L19.1803341,16.0417176 L20.2865981,13.9089051 L11.885906,13.9089051 C11.4598015,13.9089051 11.114094,13.5681152 11.114094,13.1471863 C11.114094,12.7266541 11.4598015,12.3854676 11.885906,12.3854676 L21.0764996,12.3854676 L22.1393492,10.3375549 C22.2840639,10.0578613 22.559022,9.86108398 22.8737766,9.81188965 C23.1893352,9.76269531 23.5121294,9.86624143 23.7380453,10.0888062 L26.0655411,12.3858643 L31.6660026,12.3858643 C31.4569701,12.238678 31.2616051,12.0541992 31.1172923,11.8082275 C30.8318827,11.3218383 30.8624336,10.7814941 30.8869547,10.3474731 C30.8994163,10.1257019 30.9122798,9.89599609 30.8761011,9.7615051 C30.8435403,9.64089963 30.7205328,9.4564209 30.6015451,9.27828982 C30.3555299,8.90972895 30.049217,8.45071409 30.049217,7.87109375 C30.049217,7.29187012 30.3555299,6.83285525 30.6015451,6.46429448 C30.7205328,6.2857666 30.8435403,6.10128787 30.8761011,5.9810791 C30.9042401,5.87713628 30.9030341,5.71685786 30.8949944,5.54745486 L6.94630872,5.54745486 L6.94630872,9.75 C6.94630872,10.1709289 6.60060123,10.5117188 6.17449664,10.5117188 C5.74839206,10.5117188 5.40268456,10.1709289 5.40268456,9.75 L5.40268456,4.78573611 C5.40268456,4.36480708 5.74839206,4.02401736 6.17449664,4.02401736 L31.0682502,4.02401736 C31.0835256,3.99386599 31.099605,3.96371463 31.1168904,3.93435666 C31.405516,3.4420166 31.8983501,3.19763184 32.2943058,3.0012512 C32.4924847,2.90286252 32.6974972,2.80130002 32.7923658,2.70727539 C32.8876363,2.61364746 32.9905446,2.41131597 33.090237,2.21612544 C33.2892198,1.82534788 33.5368428,1.33856206 34.0353048,1.05410764 C34.528139,0.772430445 35.0756432,0.802581813 35.5154153,0.826782227 C35.7405272,0.839080836 35.9728747,0.851776148 36.1091478,0.815673828 C36.2313514,0.783935547 36.4182746,0.662139867 36.5987661,0.544708227 C36.9726126,0.302307078 37.4377097,2.13162821e-14 38.0246085,2.13162821e-14 C38.6115073,2.13162821e-14 39.0766044,0.302307078 39.4500489,0.544708227 C39.6309424,0.662139867 39.8178656,0.783538844 39.9396672,0.815673828 C40.0763423,0.851776148 40.3086898,0.839080836 40.5333997,0.826782227 C40.9731719,0.802581813 41.520676,0.772430445 42.0135102,1.05371094 C42.5123742,1.33856206 42.7599972,1.82495117 42.95898,2.21572873 C43.0586724,2.41131597 43.1615807,2.61364746 43.2568512,2.70727539 C43.3517198,2.80130002 43.5567323,2.90286252 43.7545093,3.0012512 C44.1504649,3.19763184 44.643701,3.4420166 44.9319247,3.93395996 C45.2173343,4.42074588 45.1867834,4.96109006 45.1622623,5.39471441 C45.1498007,5.61688238 45.1369372,5.84619141 45.1735179,5.9806824 C45.2056767,6.10128787 45.3290863,6.2857666 45.448074,6.46389768 C45.6936871,6.83285525 46,7.29147341 46,7.87109375 C46,8.45071409 45.6940891,8.90933225 45.448074,9.27828982 Z M13.8608606,30.5750732 C14.317918,31.0261535 14.9253181,31.2745056 15.5713087,31.2745056 C15.9933934,31.2745056 16.3981928,31.1677856 16.7559599,30.9686279 L13.462091,27.7178344 C13.2615003,28.0701293 13.1537681,28.4704285 13.1537681,28.8873902 C13.1537681,29.5257263 13.4050091,30.1247864 13.8608606,30.5750732 Z M13.6904187,25.7889404 L18.7116191,30.7440796 L21.9861927,27.5123291 L16.9649923,22.5571899 L13.6904187,25.7889404 Z M24.715272,32.3603516 L21.9861927,29.6669617 L20.8944001,30.7444763 L23.6230775,33.4370727 C23.9241646,33.7342224 24.4137828,33.7342224 24.7148699,33.4370727 C24.8611927,33.2930603 24.9411878,33.1018371 24.9411878,32.8987121 C24.9411878,32.6955871 24.8611927,32.5039672 24.715272,32.3603516 Z M23.0530621,26.4110107 L33.0013982,21.3852539 L23.1736577,11.6860352 L18.080904,21.5038758 L23.0530621,26.4110107 Z M44.1585046,8.4403992 C44.2911598,8.24163823 44.4563758,7.99407964 44.4563758,7.87109375 C44.4563758,7.74850466 44.2911598,7.50094607 44.1585046,7.3017883 C43.980827,7.03558355 43.7794323,6.73327637 43.6821518,6.37423709 C43.5820574,6.00448611 43.6025587,5.63552854 43.62105,5.31021116 C43.6335116,5.09082031 43.650395,4.79010005 43.596127,4.69726563 C43.538643,4.59887695 43.262881,4.46240234 43.0614862,4.36242676 C42.7684389,4.21722417 42.4363989,4.05258181 42.1650587,3.78479004 C41.8941205,3.51739497 41.7268945,3.18930056 41.5797679,2.9000855 C41.4784676,2.70172114 41.3401846,2.42956543 41.2404922,2.37283323 C41.1468296,2.31887815 40.8417226,2.3355408 40.6194247,2.34783941 C40.2893945,2.36608887 39.916352,2.38632205 39.5412996,2.28793338 C39.1775028,2.19192502 38.8715919,1.99276736 38.6014577,1.8174133 C38.400063,1.68649295 38.149224,1.5234375 38.0246085,1.5234375 C37.899993,1.5234375 37.649154,1.68649295 37.4477593,1.8170166 C37.1776251,1.99276736 36.8717142,2.19152832 36.5079174,2.28753667 C36.1332669,2.38632205 35.7594204,2.36608887 35.4297923,2.34783941 C35.2074944,2.3355408 34.9023874,2.31848145 34.8087248,2.37243652 C34.7090324,2.42916873 34.5707494,2.70132444 34.4694491,2.9000855 C34.3223225,3.18930056 34.1550965,3.51699827 33.8841583,3.78479004 C33.6128181,4.05218511 33.2807781,4.21682737 32.9877308,4.36242676 C32.786336,4.46200564 32.510976,4.59887695 32.45309,4.69686892 C32.4345988,4.72900391 32.4245491,4.78692622 32.4197252,4.85635373 C32.4193233,4.85992427 32.4189213,4.8638916 32.4185193,4.86746213 C32.4108816,4.99838259 32.4201272,5.17056272 32.428167,5.31021116 C32.4466583,5.63552854 32.4671596,6.00408941 32.3670652,6.37423709 C32.2697847,6.73287966 32.06839,7.03518674 31.8907124,7.3017883 C31.7576551,7.50054927 31.5928412,7.74810786 31.5928412,7.87109375 C31.5928412,7.99368284 31.7580572,8.24124143 31.8907124,8.4403992 C32.06839,8.70660395 32.2697847,9.00891113 32.3670652,9.36795041 C32.4671596,9.73770139 32.4466583,10.106659 32.428167,10.4319763 C32.4157054,10.6513672 32.398822,10.9520875 32.45309,11.0449219 C32.510574,11.1433105 32.786336,11.2797852 32.9877308,11.3797607 C33.2807781,11.5249633 33.6128181,11.6896057 33.8841583,11.9573975 C34.1550965,12.2247925 34.3223225,12.5528869 34.4694491,12.842102 C34.5707494,13.0404664 34.7090324,13.3126221 34.8087248,13.3693543 C34.9023874,13.4233094 35.2074944,13.4066467 35.4297923,13.3943481 C35.5636536,13.3868103 35.7051525,13.3792725 35.8502692,13.3792725 C36.0633214,13.3792725 36.2852174,13.3959351 36.5079174,13.4542541 C36.8717142,13.5502625 37.1776251,13.7494201 37.4477593,13.9247742 C37.649154,14.0556946 37.899993,14.21875 38.0246085,14.21875 C38.149224,14.21875 38.400063,14.0556946 38.6014577,13.9247742 C38.8711898,13.7494201 39.1775028,13.5506592 39.5412996,13.4546508 C39.9159501,13.3558655 40.2897966,13.3760986 40.6194247,13.3943481 C40.8413206,13.4066467 41.1464276,13.4233094 41.2404922,13.369751 C41.3401846,13.3130188 41.4784676,13.0408631 41.5797679,12.842102 C41.7268945,12.5528869 41.8937185,12.2251892 42.1650587,11.9573975 C42.435997,11.6900024 42.7684389,11.5249633 43.0614862,11.3797607 C43.2624791,11.2797852 43.5382411,11.1433105 43.595725,11.0449219 C43.650395,10.9520875 43.6335116,10.6513672 43.62105,10.4319763 C43.6025587,10.106659 43.5816555,9.73770139 43.6817498,9.36795041 C43.7790304,9.00891113 43.980827,8.70700076 44.1585046,8.4403992 Z M36.4950539,5.59982302 C36.4950539,6.02035525 36.1493464,6.36154177 35.7232418,6.36154177 C35.2971372,6.36154177 34.9514297,6.02035525 34.9514297,5.59982302 C34.9514297,5.1792908 35.2971372,4.83810427 35.7232418,4.83810427 C36.1493464,4.83810427 36.4950539,5.1792908 36.4950539,5.59982302 Z M41.0977873,10.1423645 C41.0977873,10.5628967 40.7520798,10.9040832 40.3259752,10.9040832 C39.8998706,10.9040832 39.5541631,10.5628967 39.5541631,10.1423645 C39.5541631,9.72183225 39.8998706,9.38064573 40.3259752,9.38064573 C40.7520798,9.38064573 41.0977873,9.72183225 41.0977873,10.1423645 Z M39.8158557,5.02575684 C40.1173449,4.7286072 40.6061592,4.7286072 40.9076482,5.02575684 C41.2091373,5.32330317 41.2091373,5.80532834 40.9076482,6.10327148 L36.2333613,10.7164307 C36.0826167,10.8648071 35.8848399,10.9393921 35.687465,10.9393921 C35.4900902,10.9393921 35.2923134,10.8648071 35.1415688,10.7164307 C34.8400797,10.4188843 34.8400797,9.93646245 35.1415688,9.63891602 L39.8158557,5.02575684 Z"/>
</svg>
