<svg xmlns="http://www.w3.org/2000/svg" width="50" height="50" viewBox="0 0 50 50">
  <path fill="#FFF" d="M42.1875,9.765625 C42.7265625,9.765625 43.1640625,10.203125 43.1640625,10.7421875 C43.1640625,11.28125 42.7265625,11.71875 42.1875,11.71875 C41.6484375,11.71875 41.2109375,11.28125 41.2109375,10.7421875 C41.2109375,10.203125 41.6484375,9.765625 42.1875,9.765625 Z M7.8125,9.765625 C8.3515625,9.765625 8.7890625,10.203125 8.7890625,10.7421875 C8.7890625,11.28125 8.3515625,11.71875 7.8125,11.71875 C7.2734375,11.71875 6.8359375,11.28125 6.8359375,10.7421875 C6.8359375,10.203125 7.2734375,9.765625 7.8125,9.765625 Z M49.0234375,21.484375 C49.562793,21.484375 50,21.921582 50,22.4609375 L50,26.3671875 C50,26.906543 49.562793,27.34375 49.0234375,27.34375 L45.1171875,27.34375 C44.577832,27.34375 44.140625,26.906543 44.140625,26.3671875 L44.140625,22.4609375 C44.140625,21.921582 44.577832,21.484375 45.1171875,21.484375 L45.8861328,21.484375 C45.5339844,19.009082 44.7392578,16.6492187 43.5177734,14.4555664 C43.2553711,13.984375 43.424707,13.3896484 43.8958984,13.1272461 C44.3671875,12.8648437 44.9618164,13.0342773 45.2242188,13.5053711 C46.6083984,15.990918 47.4904297,18.6714844 47.8554688,21.484375 L49.0234375,21.484375 Z M48.046875,25.390625 L48.046875,23.4375 L46.9823242,23.4375 C46.9819336,23.4375 46.9816406,23.4375 46.98125,23.4375 C46.980957,23.4375 46.9805664,23.4375 46.9802734,23.4375 L46.09375,23.4375 L46.09375,25.390625 L48.046875,25.390625 Z M35.740332,28.5762695 C35.7408203,28.5886719 35.7421875,28.6007813 35.7422852,28.6132812 C35.7422852,28.6197266 35.7414063,28.6259766 35.7413086,28.6323242 C35.7410156,28.6476562 35.7399414,28.6628906 35.7389648,28.6782227 C35.7376953,28.6976562 35.7361328,28.7169922 35.7336914,28.7361328 C35.7320313,28.7496094 35.7297852,28.7629883 35.7275391,28.7764648 C35.7239258,28.7975586 35.7198242,28.818457 35.7149414,28.8390625 C35.7121094,28.8506836 35.7091797,28.8623047 35.705957,28.8738281 C35.6998047,28.8960938 35.6927734,28.9179688 35.6851563,28.9395508 C35.6830078,28.9457031 35.6816406,28.9519531 35.6792969,28.9581055 L32.1569336,38.2922852 C33.1231445,38.7716797 33.7890625,39.7682617 33.7890625,40.9179688 C33.7890625,41.7001953 33.4842773,42.4358398 32.9308594,42.9893555 C32.6164063,43.3038086 32.2430664,43.5376953 31.8359375,43.6813477 L31.8359375,49.0234375 C31.8359375,49.562793 31.3987305,50 30.859375,50 L19.140625,50 C18.6012695,50 18.1640625,49.562793 18.1640625,49.0234375 L18.1640625,43.6796875 C17.0274414,43.2765625 16.2109375,42.1910156 16.2109375,40.9179688 C16.2109375,40.1357422 16.5157227,39.4000977 17.0692383,38.846582 C17.2988281,38.6170898 17.5601563,38.4310547 17.8426758,38.2910156 L14.3208008,28.9581055 C14.318457,28.9519531 14.3170898,28.9457031 14.3149414,28.9395508 C14.3073242,28.9179688 14.300293,28.8960938 14.2941406,28.8738281 C14.290918,28.8623047 14.2878906,28.8506836 14.2851563,28.8390625 C14.2802734,28.818457 14.2760742,28.7975586 14.2725586,28.7764648 C14.2703125,28.7629883 14.2681641,28.7496094 14.2664063,28.7361328 C14.2639648,28.7169922 14.2624023,28.6976563 14.2611328,28.6782227 C14.2600586,28.6628906 14.259082,28.6476563 14.2587891,28.6323242 C14.2586914,28.6258789 14.2578125,28.6197266 14.2578125,28.6132813 C14.2578125,28.6007813 14.2591797,28.5886719 14.259668,28.5763672 C14.2601563,28.5612305 14.2606445,28.5460938 14.2619141,28.530957 C14.2636719,28.5102539 14.2665039,28.4898438 14.2695313,28.4695313 C14.2714844,28.4569336 14.2729492,28.4444336 14.275293,28.4320313 C14.2797852,28.4080078 14.2855469,28.384668 14.2917969,28.3613281 C14.2941406,28.3524414 14.2959961,28.3435547 14.2986328,28.3347656 C14.3073242,28.3055664 14.3174805,28.2769531 14.3288086,28.2489258 C14.3300781,28.2458008 14.330957,28.2426758 14.3322266,28.2396484 C14.3457031,28.2070313 14.3608398,28.175293 14.3776367,28.1446289 L24.1430664,10.2739258 C24.3142578,9.96054688 24.6428711,9.765625 25,9.765625 C25.3571289,9.765625 25.6857422,9.96054688 25.8569336,10.2738281 L35.6223633,28.1445312 C35.6391602,28.1751953 35.6542969,28.2069336 35.6677734,28.2395508 C35.669043,28.2425781 35.6699219,28.2458008 35.6711914,28.2488281 C35.6825195,28.2768555 35.6926758,28.3054688 35.7013672,28.334668 C35.7040039,28.343457 35.7058594,28.3523437 35.7082031,28.3612305 C35.7143555,28.3845703 35.7202148,28.4080078 35.724707,28.4319336 C35.7271484,28.4444336 35.7286133,28.4569336 35.7304688,28.4694336 C35.7334961,28.4897461 35.7363281,28.5101563 35.7380859,28.5308594 C35.7393555,28.5459961 35.7397461,28.5611328 35.740332,28.5762695 Z M25,27.6367188 C24.4615234,27.6367188 24.0234375,28.0748047 24.0234375,28.6132812 C24.0234375,29.1517578 24.4615234,29.5898438 25,29.5898438 C25.5384766,29.5898438 25.9765625,29.1517578 25.9765625,28.6132812 C25.9765625,28.0748047 25.5384766,27.6367188 25,27.6367188 Z M29.8828125,48.046875 L29.8828125,43.8476562 L20.1171875,43.8476562 L20.1171875,48.046875 L29.8828125,48.046875 Z M31.549707,41.6082031 C31.7342773,41.4237305 31.8359375,41.1785156 31.8360352,40.9179688 C31.8360352,40.3805664 31.3996094,39.9433594 30.8625977,39.9416016 C30.8615234,39.9416016 30.8603516,39.9416992 30.8592773,39.9416992 C30.8571289,39.9416992 30.8549805,39.9414062 30.852832,39.9414062 L19.140625,39.9414062 C18.8800781,39.9414062 18.6349609,40.0430664 18.450293,40.2277344 C18.2657227,40.412207 18.1640625,40.6574219 18.1640625,40.9179688 C18.1640625,41.4564453 18.6021484,41.8945312 19.140625,41.8945312 L30.859375,41.8945312 C31.1199219,41.8945312 31.3651367,41.7928711 31.549707,41.6082031 Z M30.184082,37.9882812 L33.3533203,29.5898437 L30.859375,29.5898437 C30.3200195,29.5898437 29.8828125,29.1526367 29.8828125,28.6132812 C29.8828125,28.0739258 30.3200195,27.6367187 30.859375,27.6367187 L33.1191406,27.6367187 L25.9765625,14.5658203 L25.9765625,25.8515625 C27.1131836,26.2546875 27.9296875,27.3402344 27.9296875,28.6132812 C27.9296875,30.2287109 26.6154297,31.5429687 25,31.5429687 C23.3845703,31.5429687 22.0703125,30.2287109 22.0703125,28.6132812 C22.0703125,27.3401367 22.8868164,26.2546875 24.0234375,25.8515625 L24.0234375,14.5658203 L16.8808594,27.6367187 L19.140625,27.6367187 C19.6799805,27.6367187 20.1171875,28.0739258 20.1171875,28.6132812 C20.1171875,29.1526367 19.6799805,29.5898437 19.140625,29.5898437 L16.6466797,29.5898437 L19.815918,37.9882812 L30.184082,37.9882812 Z M6.10400391,13.1272461 C6.57529297,13.3896484 6.74453125,13.984375 6.48212891,14.4555664 C5.26064453,16.6492187 4.46601563,19.009082 4.11376953,21.484375 L4.8828125,21.484375 C5.42216797,21.484375 5.859375,21.921582 5.859375,22.4609375 L5.859375,26.3671875 C5.859375,26.906543 5.42216797,27.34375 4.8828125,27.34375 L0.9765625,27.34375 C0.437207031,27.34375 2.30926389e-14,26.906543 2.30926389e-14,26.3671875 L2.30926389e-14,22.4609375 C2.30926389e-14,21.921582 0.437207031,21.484375 0.9765625,21.484375 L2.14453125,21.484375 C2.50947266,18.6714844 3.39160156,15.990918 4.77568359,13.5053711 C5.03798828,13.034082 5.63271484,12.8647461 6.10400391,13.1272461 Z M3.90625,25.390625 L3.90625,23.4375 L3.01972656,23.4375 C3.01943359,23.4375 3.01904297,23.4375 3.01875,23.4375 C3.01835938,23.4375 3.01806641,23.4375 3.01767578,23.4375 L1.953125,23.4375 L1.953125,25.390625 L3.90625,25.390625 Z M47.0703125,-3.64153152e-14 C48.6857422,-3.64153152e-14 50,1.31425781 50,2.9296875 C50,4.54511719 48.6857422,5.859375 47.0703125,5.859375 C45.797168,5.859375 44.7117188,5.04287109 44.3085938,3.90625 L34.4908203,3.90625 C36.5737305,4.77783203 38.4838867,5.90927734 40.0561523,7.23476562 C40.4685547,7.58242187 40.5210937,8.19853516 40.1733398,8.61074219 C39.9802734,8.83994141 39.7041992,8.95791016 39.4262695,8.95791016 C39.2040039,8.95800781 38.9805664,8.88251953 38.7973633,8.72802734 C35.9954102,6.36601562 31.9967773,4.67900391 27.9296875,4.11318359 L27.9296875,4.8828125 C27.9296875,5.42216797 27.4924805,5.859375 26.953125,5.859375 L23.046875,5.859375 C22.5075195,5.859375 22.0703125,5.42216797 22.0703125,4.8828125 L22.0703125,4.11318359 C18.0032227,4.67900391 14.0045898,6.36601562 11.2026367,8.728125 C11.0194336,8.88261719 10.7959961,8.95800781 10.5737305,8.95800781 C10.2958984,8.95800781 10.0198242,8.84003906 9.82666016,8.61083984 C9.47900391,8.19853516 9.53144531,7.58242187 9.94384766,7.23476562 C11.5161133,5.90927734 13.4262695,4.77783203 15.5091797,3.90625 L5.69140625,3.90625 C5.28828125,5.04287109 4.20273438,5.859375 2.9296875,5.859375 C1.31425781,5.859375 0,4.54511719 0,2.9296875 C0,1.31425781 1.31425781,-3.64153152e-14 2.9296875,-3.64153152e-14 C4.20273438,-3.64153152e-14 5.28828125,0.816503906 5.69140625,1.953125 L22.0703125,1.953125 L22.0703125,0.9765625 C22.0703125,0.437207031 22.5075195,-3.64153152e-14 23.046875,-3.64153152e-14 L26.953125,-3.64153152e-14 C27.4924805,-3.64153152e-14 27.9296875,0.437207031 27.9296875,0.9765625 L27.9296875,1.953125 L44.3085938,1.953125 C44.7117188,0.816503906 45.7972656,-3.64153152e-14 47.0703125,-3.64153152e-14 Z M2.9296875,3.90625 C3.46816406,3.90625 3.90625,3.46816406 3.90625,2.9296875 C3.90625,2.39121094 3.46816406,1.953125 2.9296875,1.953125 C2.39121094,1.953125 1.953125,2.39121094 1.953125,2.9296875 C1.953125,3.46816406 2.39121094,3.90625 2.9296875,3.90625 Z M25.9765625,2.9296875 L25.9765625,1.953125 L24.0234375,1.953125 L24.0234375,2.9296875 L24.0234375,3.01757812 L24.0234375,3.90625 L25.9765625,3.90625 L25.9765625,3.01757812 L25.9765625,2.9296875 Z M47.0703125,3.90625 C47.6087891,3.90625 48.046875,3.46816406 48.046875,2.9296875 C48.046875,2.39121094 47.6087891,1.953125 47.0703125,1.953125 C46.5318359,1.953125 46.09375,2.39121094 46.09375,2.9296875 C46.09375,3.46816406 46.5318359,3.90625 47.0703125,3.90625 Z"/>
</svg>
