<svg xmlns="http://www.w3.org/2000/svg" width="56" height="49" viewBox="0 0 56 49">
  <path fill="#FFF" d="M54.1509434,12.8483909 L54.1509434,6.1563394 C54.1509434,3.77300927 52.1956072,1.83380323 49.7924528,1.83380323 L6.20754717,1.83380323 C3.80439275,1.83380323 1.8490566,3.77300927 1.8490566,6.1563394 L1.8490566,12.8483909 L54.1509434,12.8483909 Z M54.1509434,14.6821941 L1.8490566,14.6821941 L1.8490566,42.8436606 C1.8490566,45.2269907 3.80439275,47.1661968 6.20754717,47.1661968 L49.7924528,47.1661968 C52.1956072,47.1661968 54.1509434,45.2269907 54.1509434,42.8436606 L54.1509434,14.6821941 Z M22.0947818,35.6455735 C21.8832547,35.6455735 21.6701799,35.5734289 21.4963148,35.4265815 L15.5137088,30.3744126 C15.3073409,30.1999353 15.1886792,29.9451266 15.1886792,29.6759915 C15.1886792,29.4073679 15.3078568,29.1525593 15.5137088,28.978082 L21.4963148,23.9259131 C21.8848025,23.597425 22.4683078,23.6439863 22.7995283,24.0292693 C23.1302329,24.4150637 23.0838002,24.9937556 22.6947965,25.3217321 L17.5392099,29.6759915 L22.6947965,34.0302507 C23.0838002,34.358739 23.1302329,34.9374307 22.7995283,35.3227137 C22.6163767,35.5360775 22.3563532,35.6455735 22.0947818,35.6455735 Z M33.9052182,35.6455735 C33.6436468,35.6455735 33.3836233,35.5360775 33.2009876,35.3227137 C32.8697671,34.9374307 32.9167157,34.358739 33.3052035,34.0302507 L38.4607901,29.6759915 L33.3052035,25.3217321 C32.9167157,24.9937556 32.8697671,24.4150637 33.2009876,24.0292693 C33.5316922,23.6439863 34.1157135,23.597425 34.5036852,23.9259131 L40.4862912,28.978082 C40.6926591,29.1525593 40.8113208,29.4073679 40.8113208,29.6759915 C40.8113208,29.9451266 40.6926591,30.1999353 40.4862912,30.3744126 L34.5036852,35.4265815 C34.3298201,35.5734289 34.1167453,35.6455735 33.9052182,35.6455735 Z M25.8821492,39.434956 C25.818691,39.434956 25.754717,39.4283044 25.690227,39.4150011 C25.1908167,39.3106216 24.8709464,38.8240294 24.976194,38.3287388 L28.7047465,20.7720171 C28.809994,20.2767265 29.3001179,19.959495 29.8000442,20.0638744 C30.2994546,20.1682538 30.6193248,20.6543345 30.5140772,21.1501368 L26.7855248,38.7068583 C26.693691,39.1387026 26.3098467,39.434956 25.8821492,39.434956 Z M49.7924528,49 L6.20754717,49 C2.78493521,49 0,46.2385501 0,42.8436606 L0,6.1563394 C0,2.76196151 2.78493521,3.55271368e-14 6.20754717,3.55271368e-14 L49.7924528,3.55271368e-14 C53.2150648,3.55271368e-14 56,2.76196151 56,6.1563394 L56,42.8436606 C56,46.2385501 53.2150648,49 49.7924528,49 Z M15.7964327,10.2946766 C14.1836675,10.2946766 12.8706516,8.99249214 12.8706516,7.39303089 C12.8706516,5.79305801 14.1836675,4.49138518 15.7964327,4.49138518 C17.409714,4.49138518 18.722214,5.79305801 18.722214,7.39303089 C18.722214,8.99249214 17.409714,10.2946766 15.7964327,10.2946766 Z M15.7964327,6.32518841 C15.203125,6.32518841 14.7197082,6.80410577 14.7197082,7.39303089 C14.7197082,7.98195601 15.203125,8.46087337 15.7964327,8.46087337 C16.3902565,8.46087337 16.8731574,7.98195601 16.8731574,7.39303089 C16.8731574,6.80410577 16.3902565,6.32518841 15.7964327,6.32518841 Z M6.80704592,10.266535 C5.19376477,10.266535 3.88126477,8.96486222 3.88126477,7.36488934 C3.88126477,5.76491659 5.19376477,4.46324377 6.80704592,4.46324377 C8.42032721,4.46324377 9.73282721,5.76491659 9.73282721,7.36488934 C9.73282721,8.96486222 8.42032721,10.266535 6.80704592,10.266535 Z M6.80704592,6.29704699 C6.21373821,6.29704699 5.73032138,6.77647598 5.73032138,7.36488934 C5.73032138,7.95381446 6.21373821,8.43273182 6.80704592,8.43273182 C7.40086966,8.43273182 7.8837706,7.95381446 7.8837706,7.36488934 C7.8837706,6.77647598 7.40086966,6.29704699 6.80704592,6.29704699 Z M24.7858195,10.3223065 C23.1730542,10.3223065 21.8605542,9.02063368 21.8605542,7.4206608 C21.8605542,5.82119955 23.1730542,4.51952672 24.7858195,4.51952672 C26.3991008,4.51952672 27.7116008,5.82119955 27.7116008,7.4206608 C27.7116008,9.02063368 26.3991008,10.3223065 24.7858195,10.3223065 Z M24.7858195,6.35281832 C24.1925118,6.35281832 23.7096108,6.83173568 23.7096108,7.4206608 C23.7096108,8.00958592 24.1925118,8.48850328 24.7858195,8.48850328 C25.3796432,8.48850328 25.8625442,8.00958592 25.8625442,7.4206608 C25.8625442,6.83173568 25.3796432,6.35281832 24.7858195,6.35281832 Z"/>
</svg>
