<svg xmlns="http://www.w3.org/2000/svg" width="45" height="45" viewBox="0 0 45 45">
  <g fill="none" fill-rule="evenodd">
    <circle cx="22.5" cy="22.5" r="22.5" fill="#FFF"/>
    <g fill="#000" transform="translate(9.31 10.862)">
      <path d="M7.11206897,1.44092446 L9.90893014,3.55271368e-15 C14.1351729,2.91107941 19.8757171,4.88582581 27.1305629,5.9242392 C27.3787597,6.45163528 20.8246735,14.6839765 20.8246735,23.0478401 C20.5803652,23.1442937 19.5917853,23.5570018 17.8589338,24.2859644 C18.4632836,18.3258016 20.293609,12.8250255 23.3499097,7.7836359 C23.4625436,7.5649989 18.20403,7.5649989 7.98625249,1.98750832 C7.84940022,1.88467512 7.55800572,1.70248051 7.11206897,1.44092446 Z"/>
      <path d="M1.42108547e-14,4.68871917 L2.79686117,3.24779471 C7.02310393,6.15887412 12.7636482,8.13362052 20.0184939,9.17203391 C20.2666908,9.69942999 13.7126045,17.9317712 13.7126045,26.2956348 C13.4682962,26.3920884 12.4797163,26.8047965 10.7468648,27.5337591 C11.3512147,21.5735963 13.18154,16.0728202 16.2378407,11.0314306 C16.3504746,10.8127936 11.091961,10.8127936 0.874183524,5.23530302 C0.737331258,5.13246983 0.44593675,4.95027521 1.42108547e-14,4.68871917 Z"/>
    </g>
  </g>
</svg>
