<svg xmlns="http://www.w3.org/2000/svg" width="52" height="52" viewBox="0 0 52 52">
  <path fill="#FFF" d="M25.1298667,42.4666667 C27.0408667,42.4666667 28.5965333,44.0214667 28.5965333,45.9333333 C28.5965333,47.8452 27.0417333,49.4 25.1298667,49.4 C23.218,49.4 21.6632,47.8452 21.6632,45.9333333 C21.6632,44.0214667 23.218,42.4666667 25.1298667,42.4666667 Z M25.1298667,47.6666667 C26.0858,47.6666667 26.8632,46.8892667 26.8632,45.9333333 C26.8632,44.9774 26.0858,44.2 25.1298667,44.2 C24.1739333,44.2 23.3965333,44.9774 23.3965333,45.9333333 C23.3965333,46.8892667 24.1739333,47.6666667 25.1298667,47.6666667 Z M22.5298667,4.33333333 C22.0506,4.33333333 21.6632,3.94593333 21.6632,3.46666667 C21.6632,2.9874 22.0514667,2.6 22.5298667,2.6 L25.9965333,2.6 C26.4749333,2.6 26.8632,2.9874 26.8632,3.46666667 C26.8632,3.94593333 26.4749333,4.33333333 25.9965333,4.33333333 L22.5298667,4.33333333 Z M28.5965333,4.33333333 C28.1172667,4.33333333 27.7298667,3.94593333 27.7298667,3.46666667 C27.7298667,2.9874 28.1181333,2.6 28.5965333,2.6 L29.4632,2.6 C29.9416,2.6 30.3298667,2.9874 30.3298667,3.46666667 C30.3298667,3.94593333 29.9416,4.33333333 29.4632,4.33333333 L28.5965333,4.33333333 Z M3.63913333,11.5630667 C3.76306667,12.025 3.48833333,12.4999333 3.0264,12.6247333 C2.951,12.6446667 2.87473333,12.6542 2.80106667,12.6542 C2.41886667,12.6542 2.06873333,12.3994 1.96473333,12.012 L1.74546667,11.1938667 C1.62153333,10.7310667 1.89626667,10.257 2.3582,10.1322 C2.82273333,10.0065333 3.29593333,10.283 3.41986667,10.7449333 L3.63913333,11.5630667 Z M1.8252,8.54793333 C1.79746667,8.5514 1.76973333,8.55226667 1.742,8.55226667 C1.3,8.55226667 0.923,8.216 0.880533333,7.7688 C0.8684,7.64313333 0.862333333,7.5192 0.862333333,7.39613333 C0.862333333,7.15953333 0.884866667,6.91686667 0.9308,6.67853333 C1.02093333,6.2088 1.47593333,5.9046 1.9448,5.9904 C2.41453333,6.0814 2.72306667,6.53466667 2.6312,7.00526667 C2.6078,7.1318 2.5948,7.26266667 2.5948,7.3944 C2.5948,7.4646 2.59826667,7.53306667 2.6052,7.60326667 C2.65113333,8.07906667 2.30186667,8.502 1.8252,8.54793333 Z M5.8318,19.7496 C5.9566,20.2124 5.68186667,20.6873333 5.2182,20.8112667 C5.1428,20.8312 5.0674,20.8407333 4.99373333,20.8407333 C4.61066667,20.8407333 4.2614,20.5850667 4.1574,20.1985333 L3.93813333,19.3795333 C3.8142,18.9158667 4.08893333,18.4418 4.55173333,18.3178667 C5.01453333,18.1904667 5.4886,18.4686667 5.61253333,18.9306 L5.8318,19.7496 Z M10.2197333,36.1226667 C10.3436667,36.5846 10.0698,37.0595333 9.607,37.1843333 C9.5316,37.2042667 9.45533333,37.2138 9.38166667,37.2138 C8.99946667,37.2138 8.64933333,36.959 8.54533333,36.5716 L8.32606667,35.7534667 C8.20213333,35.2906667 8.47686667,34.8166 8.9388,34.6918 C9.40246667,34.5644 9.87653333,34.8417333 10.0004667,35.3045333 L10.2197333,36.1226667 Z M4.73546667,15.6554667 C4.8594,16.1182667 4.58553333,16.5932 4.12273333,16.7171333 C4.04733333,16.7370667 3.97106667,16.7466 3.8974,16.7466 C3.5152,16.7466 3.16506667,16.4918 3.06106667,16.1044 L2.8418,15.2862667 C2.71786667,14.8234667 2.9926,14.3494 3.45453333,14.2246 C3.9182,14.0972 4.39226667,14.3745333 4.5162,14.8373333 L4.73546667,15.6554667 Z M3.99966667,5.39326667 C3.6166,5.39326667 3.26646667,5.1376 3.16246667,4.75106667 C3.03853333,4.2874 3.31326667,3.81333333 3.7752,3.6894 L4.5942,3.47013333 C5.05873333,3.341 5.53193333,3.62093333 5.65586667,4.08286667 C5.7798,4.54653333 5.50506667,5.0206 5.04313333,5.14453333 L4.22413333,5.3638 C4.14873333,5.38373333 4.07333333,5.39326667 3.99966667,5.39326667 Z M8.09293333,4.2952 C7.70986667,4.2952 7.35973333,4.03953333 7.2566,3.653 C7.13266667,3.1902 7.4074,2.71526667 7.86933333,2.59133333 L8.68746667,2.37206667 C9.152,2.24466667 9.62433333,2.522 9.74826667,2.9848 C9.8722,3.4476 9.59746667,3.92253333 9.13553333,4.04646667 L8.3174,4.26573333 C8.242,4.28566667 8.1666,4.2952 8.09293333,4.2952 Z M9.12253333,32.0294 C9.24646667,32.4913333 8.9726,32.9671333 8.50893333,33.0910667 C8.4344,33.111 8.35813333,33.1205333 8.28446667,33.1205333 C7.90226667,33.1205333 7.55213333,32.8657333 7.44813333,32.4783333 L7.22886667,31.6593333 C7.10493333,31.1965333 7.3788,30.7216 7.8416,30.5976667 C8.3044,30.4728667 8.77933333,30.7484667 8.90326667,31.2104 L9.12253333,32.0294 Z M6.929,23.8428667 C7.05293333,24.3048 6.7782,24.7806 6.3154,24.9045333 C6.24,24.9244667 6.1646,24.934 6.09093333,24.934 C5.70786667,24.934 5.3586,24.6783333 5.2546,24.2918 L5.03533333,23.4736667 C4.9114,23.0108667 5.18613333,22.5359333 5.64806667,22.412 C6.11173333,22.2863333 6.5858,22.5636667 6.70973333,23.0247333 L6.929,23.8428667 Z M8.0262,27.9352667 C8.15013333,28.3980667 7.8754,28.873 7.4126,28.9969333 C7.3372,29.0168667 7.2618,29.0264 7.18813333,29.0264 C6.80506667,29.0264 6.4558,28.7707333 6.3518,28.3842 L6.13253333,27.5660667 C6.0086,27.1032667 6.28333333,26.6283333 6.74526667,26.5044 C7.20893333,26.3761333 7.683,26.6552 7.80693333,27.1171333 L8.0262,27.9352667 Z M48.5463333,14.2254667 C49.0082667,14.3502667 49.2821333,14.8243333 49.1590667,15.2871333 L48.9398,16.1052667 C48.8366667,16.4926667 48.4856667,16.7474667 48.1034667,16.7474667 C48.0289333,16.7474667 47.9535333,16.7379333 47.8781333,16.718 C47.4153333,16.5932 47.1414667,16.1182667 47.2654,15.6563333 L47.4846667,14.8382 C47.6086,14.3754 48.0818,14.0989333 48.5463333,14.2254667 Z M49.6418,10.1313333 C50.1046,10.2552667 50.3784667,10.7310667 50.2536667,11.193 L50.0344,12.0111333 C49.9312667,12.3976667 49.5811333,12.6533333 49.1980667,12.6533333 C49.1244,12.6533333 49.049,12.6438 48.9736,12.6238667 C48.5116667,12.4999333 48.2369333,12.0241333 48.3608667,11.5622 L48.5801333,10.7440667 C48.7040667,10.283 49.1764,10.0048 49.6418,10.1313333 Z M51.0692,6.6794 C51.1151333,6.91773333 51.1376667,7.15953333 51.1368,7.39786667 C51.1368,7.52006667 51.1307333,7.644 51.1186,7.76966667 C51.0752667,8.21686667 50.6982667,8.55313333 50.2562667,8.55313333 C50.2285333,8.55313333 50.2008,8.55226667 50.1730667,8.5488 C49.6972667,8.50286667 49.348,8.07993333 49.3930667,7.60326667 C49.4,7.53393333 49.4034667,7.46546667 49.4034667,7.39613333 C49.4043333,7.26353333 49.3913333,7.13266667 49.3670667,7.00613333 C49.2769333,6.53553333 49.5854667,6.0814 50.0552,5.99126667 C50.5284,5.90633333 50.9799333,6.21053333 51.0692,6.6794 Z M42.8644667,4.04646667 C42.4025333,3.92253333 42.1278,3.4476 42.2508667,2.9848 C42.3748,2.52286667 42.8462667,2.24466667 43.3125333,2.37206667 L44.1306667,2.59133333 C44.5926,2.71526667 44.8673333,3.19106667 44.7434,3.653 C44.6402667,4.03953333 44.2901333,4.2952 43.9070667,4.2952 C43.8334,4.2952 43.758,4.28566667 43.6826,4.26573333 L42.8644667,4.04646667 Z M46.9577333,5.14453333 C46.4949333,5.0206 46.2210667,4.54566667 46.3441333,4.08286667 C46.4672,3.62093333 46.9412667,3.34186667 47.4058,3.47013333 L48.2248,3.6894 C48.6867333,3.81333333 48.9614667,4.28826667 48.8375333,4.75106667 C48.7344,5.1376 48.3842667,5.39326667 48.0012,5.39326667 C47.9275333,5.39326667 47.8521333,5.38373333 47.7767333,5.3638 L46.9577333,5.14453333 Z M47.4491333,18.3187333 C47.9110667,18.4426667 48.1858,18.9176 48.0618667,19.3804 L47.8426,20.1985333 C47.7394667,20.5859333 47.3884667,20.8407333 47.0062667,20.8407333 C46.9317333,20.8407333 46.8563333,20.8312 46.7809333,20.8112667 C46.3181333,20.6864667 46.0442667,20.2115333 46.1682,19.7496 L46.3874667,18.9314667 C46.5105333,18.4695333 46.9854667,18.1948 47.4491333,18.3187333 Z M41.9648667,38.7842 C42.4276667,38.9081333 42.7015333,39.3830667 42.5767333,39.8406667 L42.3574667,40.6596667 C42.2335333,41.1224667 41.7586,41.3963333 41.2958,41.2724 C41.0366667,41.2030667 40.8364667,41.0236667 40.7324667,40.7974667 C40.7324667,40.8026667 40.7298667,40.8061333 40.729,40.8104667 L40.729,42.8592667 C40.7758,42.8636 40.8208667,42.861 40.8676667,42.8731333 C41.3296,42.9970667 41.6043333,43.4728667 41.4804,43.9348 L41.2611333,44.7529333 C41.1866,45.0328667 40.9803333,45.2365333 40.729,45.3318667 L40.729,48.1771333 C40.729,50.2814 39.0164667,51.9948 36.9113333,51.9948 L15.0817333,51.9948 C12.9766,51.9948 11.2640667,50.2822667 11.2640667,48.1771333 L11.2640667,45.3275333 C11.0170667,45.2304667 10.8142667,45.0276667 10.7406,44.7520667 L10.5213333,43.9339333 C10.3974,43.4711333 10.6721333,42.9962 11.1340667,42.8722667 C11.1774,42.8601333 11.2207333,42.8636 11.2640667,42.8584 L11.2640667,40.8018 C11.1583333,41.0245333 10.9616,41.2030667 10.7042,41.2715333 C10.2388,41.3980667 9.76646667,41.1198667 9.64253333,40.6588 L9.42326667,39.8406667 C9.29933333,39.3778667 9.57406667,38.9029333 10.036,38.779 C10.4996667,38.6507333 10.9737333,38.9298 11.0976667,39.3917333 L11.2632,40.0088 L11.2632,39.8597333 L11.2632,39.858 L11.2632,36.4719333 L11.2632,36.4702 L11.2632,35.6226 L11.2632,35.6208667 L11.2632,32.2356667 L11.2632,32.2339333 L11.2632,31.3854667 L11.2632,31.3837333 L11.2632,27.9985333 L11.2632,27.9968 L11.2632,27.1483333 L11.2632,27.1466 L11.2632,23.7614 L11.2632,23.7596667 L11.2632,22.9112 L11.2632,22.9094667 L11.2632,19.5242667 L11.2632,19.5225333 L11.2632,18.6740667 L11.2632,18.6723333 L11.2632,15.2871333 L11.2632,15.2854 L11.2632,14.4369333 L11.2632,14.4352 L11.2632,11.05 L11.2632,11.0482667 L11.2632,10.2006667 L11.2632,10.1989333 L11.2632,6.81286667 L11.2632,6.81113333 L11.2632,5.96353333 L11.2632,5.9618 L11.2632,3.81766667 C11.2632,1.7134 12.9757333,-2.84217094e-14 15.0808667,-2.84217094e-14 L36.9113333,-2.84217094e-14 C39.0173333,-2.84217094e-14 40.7298667,1.7134 40.729,3.81766667 L40.729,5.92193333 C40.7298667,5.93666667 40.7376667,5.9488 40.7376667,5.96353333 L40.7376667,6.812 C40.7376667,6.82673333 40.7298667,6.83886667 40.729,6.8536 L40.729,10.1599333 C40.7298667,10.1746667 40.7376667,10.1868 40.7376667,10.2015333 L40.7376667,11.05 C40.7376667,11.0647333 40.7298667,11.0768667 40.729,11.0916 L40.729,14.3970667 C40.7298667,14.4118 40.7376667,14.4239333 40.7376667,14.4386667 L40.7376667,15.2871333 C40.7376667,15.3018667 40.7298667,15.314 40.729,15.3287333 L40.729,18.6350667 C40.7298667,18.6498 40.7376667,18.6619333 40.7376667,18.6766667 L40.7376667,19.5268667 C40.7376667,19.5416 40.7298667,19.5537333 40.729,19.5684667 L40.729,22.8748 C40.7298667,22.8895333 40.7376667,22.9016667 40.7376667,22.9164 L40.7376667,23.764 C40.7376667,23.7787333 40.7298667,23.7908667 40.729,23.8056 L40.729,27.1119333 C40.7298667,27.1266667 40.7376667,27.1388 40.7376667,27.1535333 L40.7376667,28.0011333 C40.7376667,28.0158667 40.7298667,28.028 40.729,28.0427333 L40.729,31.3490667 C40.7298667,31.3638 40.7376667,31.3759333 40.7376667,31.3906667 L40.7376667,32.2382667 C40.7376667,32.253 40.7298667,32.2651333 40.729,32.2798667 L40.729,35.5862 C40.7298667,35.6009333 40.7376667,35.6130667 40.7376667,35.6278 L40.7376667,36.4754 C40.7376667,36.4901333 40.7298667,36.5022667 40.729,36.517 L40.729,39.8233333 C40.7298667,39.8380667 40.7376667,39.8502 40.7376667,39.8649333 L40.7376667,40.014 L40.9032,39.3969333 C41.0271333,38.9341333 41.5038,38.6611333 41.9648667,38.7842 Z M12.9965333,6.93333333 L12.9965333,39.8666667 L38.9965333,39.8666667 L38.9965333,6.93333333 L12.9965333,6.93333333 Z M15.0808667,1.73333333 C13.9316667,1.73333333 12.9965333,2.66846667 12.9956667,3.81766667 L12.9956667,5.2 L38.9956667,5.2 L38.9956667,3.81766667 C38.9956667,2.66846667 38.0605333,1.73333333 36.9113333,1.73333333 L15.0808667,1.73333333 Z M36.9113333,50.2666667 C38.0614,50.2666667 38.9965333,49.3315333 38.9965333,48.1823333 L38.9965333,41.6 L12.9965333,41.6 L12.9965333,48.1823333 C12.9965333,49.3315333 13.9316667,50.2666667 15.0808667,50.2666667 L36.9113333,50.2666667 Z M44.1584,30.5985333 C44.6203333,30.7216 44.8950667,31.1974 44.7702667,31.6602 L44.551,32.4783333 C44.4478667,32.8648667 44.0977333,33.1205333 43.7146667,33.1205333 C43.641,33.1205333 43.5656,33.111 43.4902,33.0910667 C43.0282667,32.9671333 42.7535333,32.4913333 42.8774667,32.0294 L43.0967333,31.2112667 C43.2206667,30.7493333 43.693,30.4711333 44.1584,30.5985333 Z M43.0620667,34.6909333 C43.524,34.8157333 43.7987333,35.2906667 43.6748,35.7526 L43.4555333,36.5707333 C43.3524,36.9581333 43.0014,37.2129333 42.6192,37.2129333 C42.5446667,37.2129333 42.4692667,37.2034 42.3938667,37.1834667 C41.9310667,37.0586667 41.6572,36.5837333 41.7811333,36.1218 L42.0004,35.3036667 C42.1243333,34.8408667 42.5966667,34.5644 43.0620667,34.6909333 Z M45.2547333,26.5044 C45.7166667,26.6283333 45.9914,27.1024 45.8683333,27.5660667 L45.6490667,28.3850667 C45.5459333,28.7716 45.1958,29.0272667 44.8127333,29.0272667 C44.7382,29.0272667 44.6628,29.0177333 44.5882667,28.9978 C44.1254667,28.8738667 43.8507333,28.3989333 43.9746667,27.9361333 L44.1939333,27.1171333 C44.317,26.6552 44.7919333,26.3761333 45.2547333,26.5044 Z M46.3519333,22.4111333 C46.8138667,22.5350667 47.0886,23.0108667 46.9638,23.4728 L46.7445333,24.2909333 C46.6414,24.6774667 46.2912667,24.9331333 45.9082,24.9331333 C45.8345333,24.9331333 45.7591333,24.9236 45.6837333,24.9036667 C45.2218,24.7797333 44.9470667,24.3039333 45.071,23.842 L45.2902667,23.0238667 C45.4142,22.5628 45.8865333,22.2854667 46.3519333,22.4111333 Z"/>
</svg>
