<svg xmlns="http://www.w3.org/2000/svg" width="40" height="33" viewBox="0 0 40 33">
  <path fill="#FFF" d="M39.0949495,13.2827037 C40.1842424,17.2125556 40.2105051,21.4964444 39.1652525,25.0364074 C38.0072727,28.9601481 35.6238384,31.614 32.4537374,32.5074444 C31.6557576,32.7327407 30.8339394,32.8472222 30.0109091,32.8472222 C25.9705051,32.8472222 22.3878788,30.1037407 21.2985859,26.1767407 C19.9547475,21.3302222 22.7709091,16.2840741 27.5781818,14.9278148 C29.7090909,14.3293333 32.0622222,14.5570741 34.0347475,15.5413704 C33.9713131,15.2732963 33.9054545,15.0162222 33.8359596,14.7648519 C32.0787879,8.43007407 28.6319192,5.57985185 26.7458586,5.57985185 L26.6626263,5.58148148 C26.300202,5.59818519 25.9515152,5.3517037 25.8505051,4.98707407 L24.8036364,1.21122222 C24.7418182,0.989592593 24.7761616,0.752481481 24.8977778,0.557333333 C25.019798,0.363407407 25.2169697,0.229777778 25.4424242,0.189851852 C25.84,0.118962963 26.2480808,0.0831111111 26.6565657,0.0831111111 C31.7422222,0.0831111111 36.9741414,5.63485185 39.0949495,13.2827037 Z M5.69212121,0.0839259259 C10.7789899,0.0839259259 16.010101,5.63485185 18.1321212,13.2818889 C19.2218182,17.2121481 19.2476768,21.4964444 18.2028283,25.0364074 C17.0444444,28.9601481 14.6610101,31.614 11.4913131,32.5074444 C10.6929293,32.7327407 9.87111111,32.8472222 9.04808081,32.8472222 C5.00767677,32.8472222 1.42505051,30.1037407 0.335757576,26.1767407 C-1.00888889,21.3302222 1.80808081,16.2840741 6.61454545,14.9278148 C8.74545455,14.3293333 11.0977778,14.5570741 13.0711111,15.5413704 C13.0080808,15.2749259 12.9422222,15.0178519 12.8723232,14.7648519 C11.1151515,8.43007407 7.66787879,5.57985185 5.78181818,5.57985185 L5.69939394,5.58148148 C5.33050505,5.59818519 4.98828283,5.3517037 4.88727273,4.98707407 L3.84,1.21122222 C3.77858586,0.989592593 3.81292929,0.752481481 3.93454545,0.557333333 C4.05616162,0.363407407 4.25373737,0.228962963 4.47878788,0.189851852 C4.8759596,0.118962963 5.28444444,0.0839259259 5.69212121,0.0839259259 Z" transform="matrix(-1 0 0 1 40 0)"/>
</svg>
