<svg xmlns="http://www.w3.org/2000/svg" xmlns:xlink="http://www.w3.org/1999/xlink" width="409" height="297" viewBox="0 0 409 297">
  <defs>
    <polygon id="unique-a" points=".294 0 21.904 0 21.904 114.716 .294 114.716"/>
    <polygon id="unique-c" points=".404 0 13.933 0 13.933 164.599 .404 164.599"/>
    <polygon id="unique-e" points=".13 0 21.563 0 21.563 138.703 .13 138.703"/>
    <polygon id="unique-g" points=".553 0 14.564 0 14.564 120.836 .553 120.836"/>
    <polygon id="unique-i" points=".086 0 17.791 0 17.791 137.526 .086 137.526"/>
    <polygon id="unique-k" points=".557 0 25.555 0 25.555 93.965 .557 93.965"/>
    <polygon id="unique-m" points=".015 0 22.801 0 22.801 207.866 .015 207.866"/>
  </defs>
  <g fill="none" fill-rule="evenodd">
    <path fill="#FFF" d="M0.00395927626,154.380054 C0.0890653472,160.032672 2.32876324,165.232075 6.89142828,168.660933 C11.2942898,171.969588 16.8696559,173.296116 22.3146076,172.945319 C32.1820136,172.310573 40.7550727,165.874794 44.4207565,156.739349 C46.3286019,151.983349 46.6512702,146.319079 44.5934177,141.559399 C42.8619071,137.555283 39.5384845,134.181007 35.2084835,133.204662 C34.3525246,133.012092 34.0610822,134.187753 34.8527524,134.49562 C39.9995267,136.497372 43.43622,141.30734 44.0472694,146.74347 C44.7091375,152.636494 42.3053502,158.622124 38.4835365,163.024874 C31.0119582,171.632283 16.807204,174.093996 7.67085295,166.631584 C1.52056171,161.608193 1.09319453,152.679424 3.51841141,145.600313 C4.73438736,142.051251 7.27899766,139.401874 10.447515,137.50806 C11.920646,136.628001 13.4978636,135.957684 15.0609988,135.260382 C16.7294452,134.515245 18.3513587,133.81733 19.9695986,132.970388 C20.5445238,132.669267 20.1091971,131.927809 19.563661,132.005696 C18.2552317,132.192134 17.0257857,132.370599 15.7614401,132.764326 C14.4297444,133.179517 13.1378465,133.66953 11.8612555,134.231296 C9.46665227,135.285527 7.21409662,136.744524 5.33686487,138.572717 C1.17095331,142.627736 -0.0805345208,148.762393 0.00395927626,154.380054"/>
    <path fill="#FFF" d="M27.6777984 142.432042C28.2203579 143.869915 28.9052596 145.25831 29.6642047 146.605572 30.3248508 147.778166 31.1642224 149.26075 32.4255139 149.948688 32.7248791 150.112029 33.0523298 149.859268 32.9929674 149.558221 32.7344537 148.258054 31.7342291 147.020481 31.0652851 145.871135 30.2910206 144.542354 29.6418641 143.150382 29.0705807 141.736354 28.5203615 140.374189 28.0850372 138.964333 27.702054 137.553882 27.5105624 136.849848 27.3318368 136.142238 27.1473666 135.43582 27.0088543 134.905261 26.9609814 134.414047 26.5326785 134.031925 26.475231 133.981254 26.3922513 133.993177 26.3482082 134.051598 25.6575618 134.974412 26.1752275 136.814676 26.3654425 137.863275 26.6482118 139.425145 27.114813 140.93992 27.6777984 142.432042M12.5679308 150.900422C14.7503357 148.66606 15.9270556 145.395246 17.1373605 142.567828 17.7941344 141.032713 18.3787627 139.468411 18.9335376 137.894173 19.4516177 136.423021 20.0182096 134.883559 19.9995513 133.307458 19.9958196 132.991369 19.6039943 132.890146 19.4292277 133.14103 18.5951995 134.337078 18.1641917 135.762897 17.6560626 137.117922 17.0689466 138.684087 16.4407821 140.231621 15.7927155 141.773567 14.5780569 144.666812 12.7358559 147.501682 12.0094242 150.56446 11.9347908 150.878687 12.3203967 151.154411 12.5679308 150.900422M16.9504751 153.654777C17.8392962 153.535222 18.1743039 153.607453 18.5012764 154.457419 18.6731069 154.903263 18.8548269 155.316103 19.2071412 155.646749 19.9519461 156.344157 21.0589549 155.912636 21.5973159 155.186585 22.0349274 154.596278 22.2803113 153.888285 22.7383199 153.3123 23.918882 151.827195 24.5493393 154.294898 24.6537974 155.060179 24.7131346 155.491701 25.2935261 155.706527 25.6390414 155.48921 27.4055579 154.379584 29.0577267 152.823492 29.934804 150.891921 30.245706 150.206344 29.3673925 149.6397 28.9279267 150.279821 28.002638 151.62669 27.0414997 152.798585 25.7750224 153.753162 25.5450909 152.864589 25.1142784 152.000924 24.2075326 151.690827 22.8050742 151.211358 21.779036 152.181503 21.1362168 153.350284 20.8685815 153.836602 20.2597576 155.179112 19.801749 154.183438 19.5903604 153.725764 19.4753946 153.195235 19.1181355 152.817888 18.7281174 152.408161 18.3115211 152.258093 17.7564715 152.205788 17.0759485 152.141028 16.2371931 152.689615 15.5931378 152.259339 15.3162311 152.073778 14.9169415 152.365195 15.0152186 152.688992 15.2989244 153.629247 16.0727798 153.772465 16.9504751 153.654777"/>
    <path fill="#FFF" d="M14.1113461,120.501763 C14.5086816,119.950802 15.1093778,119.516784 15.7332258,119.231658 C16.281361,118.98029 16.7537836,118.835617 17.0847922,118.322632 C17.1880368,118.162287 17.1292187,117.906698 16.9790446,117.792769 C16.6311414,117.527536 16.2532034,117.437115 15.8683824,117.466652 C16.0836319,117.041074 16.3007585,116.609467 16.6280128,116.254417 C17.5985126,115.200718 19.0264174,114.678088 20.4443107,114.508098 C23.1449407,114.183187 25.518942,115.306811 27.8284937,116.467809 C26.8166961,116.192328 25.7598462,116.064534 24.7161366,115.995814 C23.2331679,115.89816 21.4367109,115.925889 20.1921435,116.800556 C19.8254685,117.057952 19.8842867,117.702951 20.3879955,117.774082 C21.4805116,117.928399 22.556759,117.702951 23.6492752,117.652918 C24.8800766,117.596858 26.1014922,117.766848 27.3003816,118.019422 C29.2695388,118.434753 30.7456245,119.480616 30.967757,121.323986 C30.7274785,121.161832 30.4859486,121.017159 30.2487987,120.895996 C28.7270351,120.118381 26.9086777,119.93332 25.2154653,119.977928 C23.4365286,120.024343 21.3434778,120.3161 19.9725139,121.478303 C19.7653989,121.653719 19.9212045,122.013592 20.1702431,122.053377 C21.5155523,122.268577 22.8158092,121.862891 24.1442238,121.680242 C25.607795,121.478303 27.0619803,121.547023 28.4867566,121.926185 C29.8514632,122.289675 31.0584871,123.100445 31.855661,124.221657 C32.5558475,125.206636 32.6403204,126.269377 32.6928813,127.39059 C30.4277561,125.731677 27.0945181,125.132492 24.4339345,125.052319 C20.7859567,124.943212 17.1605049,126.240443 14.2615201,128.325537 C14.2352397,128.344223 14.2077078,128.364116 14.1808016,128.384008 C13.8741962,126.943913 13.5294216,125.597253 15.0499339,124.592984 C15.4910701,124.301227 15.9747557,124.119181 16.1080352,123.583892 C16.2106541,123.173384 15.6913022,122.87138 15.3390189,122.864749 C14.6031661,122.850282 13.9530376,123.152286 13.4299313,123.612224 C13.412411,123.426561 13.3930136,123.239089 13.3842534,123.048604 C13.3435813,122.150428 13.5769768,121.24321 14.1113461,120.501763 M13.1808927,129.204423 C12.4275196,129.924169 11.8312035,130.82777 12.1315516,131.842286 C12.4600573,132.95084 14.1370008,134.09074 14.9310461,132.706102 C15.0956118,132.417963 14.9304203,132.11837 14.6744987,131.957422 C14.3741507,131.768142 13.9261314,131.56138 14.0950772,131.120732 C14.2934321,130.602322 14.9141515,130.200252 15.3383932,129.871725 C16.2068997,129.1996 17.1723937,128.627541 18.173554,128.159163 C20.2716106,127.175992 22.5786594,126.73233 24.9026027,126.749208 C27.1270558,126.764881 29.3527603,127.374314 31.3062743,128.380994 C32.3174462,128.902419 33.1502864,129.629398 33.5382361,130.68792 C33.7828946,131.354619 33.5951771,132.041814 33.155918,132.577103 C33.0620592,132.691635 32.9494287,132.781453 32.8305409,132.864639 C32.7848629,132.81521 32.7291734,132.770602 32.6603436,132.733831 C30.1812204,131.414297 27.0601032,131.102045 24.2775032,131.019461 C22.7788914,130.975456 21.2834082,131.100839 19.8048196,131.324479 C18.4720249,131.525815 17.0434943,131.786829 15.9941532,132.654261 C15.760132,132.847761 15.7376058,133.338442 16.1399471,133.375213 C17.4170523,133.492157 18.6566139,133.151573 19.90869,132.947223 C21.2615078,132.725995 22.6368518,132.644014 24.0065642,132.629546 C26.8329649,132.600009 29.4203386,133.323975 32.1603892,133.812245 C32.1754066,133.824301 32.1910497,133.835754 32.2079443,133.845399 C33.3054663,134.451216 34.4136256,133.14012 34.7859321,132.270276 C35.3459561,130.960386 34.7283654,129.4576 33.84359,128.439466 C33.7259536,128.303836 33.6014343,128.174233 33.4719092,128.04885 C33.4875523,128.032575 33.501944,128.014491 33.5150842,127.995804 C34.902317,125.978826 33.5814111,123.549532 31.8387664,122.000933 C33.1252574,120.068951 31.1097966,117.893437 29.314591,117.009728 C29.4797825,116.890373 29.5392264,116.62936 29.3571403,116.45515 C26.9299523,114.139785 23.4252655,112.68462 19.9887828,113.058358 C18.4807851,113.222923 16.9959392,113.840795 15.8696339,114.822761 C14.9998758,115.580483 13.565088,117.150181 13.9893297,118.390749 C13.4136625,118.88143 12.9293512,119.472176 12.6509035,119.916442 C11.9469626,121.041874 11.6059424,123.394009 12.720359,124.443489 C12.6033484,124.624932 12.499478,124.814212 12.4131279,125.006506 C11.8055487,126.356181 12.2823513,128.077182 13.1808927,129.204423"/>
    <g transform="translate(16)">
      <mask id="unique-b" fill="#fff">
        <use xlink:href="#unique-a"/>
      </mask>
      <path fill="#FFF" d="M8.07870556,110.441449 C8.17526111,102.735834 7.69126111,94.9957807 7.29037222,87.2784813 C11.7258167,88.2310749 16.8469278,87.8387219 18.4663722,93.3396578 C21.0000389,101.949283 13.9258167,106.714711 8.07870556,110.441449 M6.10481667,44.689738 C6.08098333,42.7753262 6.07487222,40.8609144 6.06570556,38.9465027 C6.25331667,40.3787754 6.46659444,41.7969037 6.63953889,43.1762888 C7.26715,48.1969305 8.08909444,53.2267968 8.10987222,58.304016 C8.12087222,61.0738556 7.49998333,63.4777861 6.52587222,65.7169037 C6.33948333,58.7098984 6.19037222,51.702893 6.10481667,44.689738 M20.1872611,89.0674385 C18.2897611,85.3050321 14.3407611,84.2552727 10.85865,83.7233209 C9.55026111,83.5234545 8.26509444,83.3168235 7.07342778,82.8113155 C7.02087222,81.6238021 6.97137222,80.4362888 6.93165,79.2506203 C6.86320556,77.233508 6.80209444,75.2176257 6.73976111,73.2005134 C9.06381667,69.4780802 10.8684278,65.7408877 11.4838167,61.0984545 C12.1670389,55.9462086 11.0578722,50.6168503 10.40765,45.517492 C9.67920556,39.8148449 9.71159444,33.2364759 7.51953889,27.945246 C7.24453889,27.2810749 6.47881667,27.2730802 6.27103889,27.9962888 C6.19403889,28.2631872 6.12803889,28.5331604 6.06631667,28.8037487 C6.16776111,11.0931337 6.70492778,-6.60641176 7.07465,-24.310877 C7.08259444,-24.6866257 6.53076111,-24.7511979 6.48798333,-24.3760642 C3.87426111,-1.46400535 3.14948333,21.7051123 3.06331667,44.8133476 C3.03092778,53.5834813 3.20265,62.3591497 3.48315,71.1292834 C3.30715,71.3974118 3.12992778,71.6655401 2.95087222,71.9342834 C0.915872222,74.9857807 -0.563627778,78.5120374 0.855983333,82.3027326 C1.56853889,84.2060749 2.69420556,85.3745241 4.04353889,86.1364759 C4.40531667,94.6378663 4.92965,103.229043 6.32359444,111.563775 C5.78398333,111.912465 5.26453889,112.25439 4.78053889,112.591396 C3.75998333,113.302305 4.55809444,114.992251 5.65565,114.677385 C6.05531667,114.562385 6.45681667,114.435086 6.85831667,114.297947 C7.15042778,114.776396 7.89415,114.487358 7.98337222,113.885914 C14.2643722,111.426021 20.3657056,106.298374 21.68815,98.7212888 C22.26565,95.4102727 21.6600389,91.9873316 20.1872611,89.0674385" mask="url(#unique-b)"/>
    </g>
    <path fill="#FFF" d="M59.1109746,199.771288 C59.6900095,208.878515 63.0330933,217.676949 68.1672023,225.168387 C69.2113033,226.691476 70.5188804,228.383388 72.4012032,228.853023 C74.526782,229.382819 76.371728,228.411628 77.9501341,227.040172 C81.2037585,224.214384 83.5388927,220.111681 85.2453606,216.209111 C87.0596698,212.059751 88.0559774,207.560469 88.5749642,203.075305 C89.0767944,198.736865 89.383162,193.815218 88.019826,189.603854 C87.1944715,187.054322 85.7508672,184.911193 83.5419564,183.373984 C81.6902704,182.085405 79.1002383,181.405202 77.1443872,182.75026 C76.8018682,182.985384 77.0365458,183.433532 77.3612955,183.509656 C79.2515839,183.954734 80.9843993,184.288083 82.5995695,185.45204 C84.3660854,186.724657 85.3709713,188.751759 85.9432661,190.800962 C87.1025612,194.951549 86.6276914,199.692095 86.0860334,203.908983 C85.5357971,208.194015 84.3801783,212.385733 82.6105988,216.325752 C81.755833,218.22946 80.6915118,220.02021 79.4911634,221.723172 C78.1989046,223.555054 76.6505225,225.592593 74.5733499,226.547209 C72.181844,227.646706 70.4049116,224.421883 69.3412032,222.818372 C68.0636501,220.89195 66.9889124,218.848886 66.0293689,216.748116 C64.2248634,212.798275 63.0306423,208.602259 62.334575,204.320911 C61.6127729,199.882405 61.3131453,195.042406 62.6415554,190.694757 C63.2414233,188.730273 64.3014554,186.99416 65.8259408,185.619635 C67.3308187,184.262913 69.2370382,183.865105 71.0421564,183.095272 C71.7970462,182.773588 71.8129774,181.584461 71.0139705,181.300225 C67.2817998,179.973584 63.4522042,183.301543 61.5300536,186.232308 C58.9345069,190.189516 58.8205381,195.210001 59.1109746,199.771288"/>
    <path fill="#FFF" d="M66.8747991,180.118339 C66.6701056,179.438552 65.7425691,179.295342 65.3747318,179.921041 C64.8798012,180.763092 65.0050614,181.84485 65.0398899,182.787087 C65.0521104,183.114073 65.0783845,184.261597 65.644194,184.198904 C65.98148,184.161412 66.1641766,183.908796 66.2924919,183.613157 C66.4110309,183.850406 66.6597182,184.032338 66.9340686,184.047704 C68.1188468,184.11347 69.1410923,183.752679 70.2757664,183.456425 C71.8485458,183.044619 73.3926069,182.881741 75.0142683,182.918619 C78.0278455,182.987458 80.4279532,184.504993 83.285719,184.99117 C83.7397108,185.068614 84.1924806,184.623618 83.9150751,184.167558 C83.5570142,183.577508 83.0859136,183.083956 82.5457672,182.661086 C82.6429202,182.601467 82.7241866,182.519106 82.7742907,182.41093 C83.7598747,180.25233 83.1372398,178.029808 81.7092735,176.414546 C81.8363667,176.418848 81.9683482,176.35677 82.0490036,176.240604 C83.5374614,174.104746 81.7783193,171.386827 79.7521591,169.750053 C79.821816,169.716248 79.8755863,169.648638 79.8713091,169.566892 C79.7020551,166.513997 77.4779227,163.083102 74.1062846,163.00197 C72.4601822,162.962633 71.1024838,163.510888 70.0338004,164.790559 C69.2663525,165.709439 68.918068,167.016154 69.9317591,167.864351 C70.146229,168.04321 70.3949164,168.045054 70.6093863,167.864351 C70.963781,167.565024 71.2497409,167.233121 71.4287713,166.796115 C72.0685149,165.234326 73.4824277,164.964501 74.9684414,165.332668 C76.8296247,165.793644 78.1011685,167.877873 79.2517293,169.372052 C78.7164711,168.993437 78.1793798,168.697797 77.6942256,168.51525 C74.3213655,167.248486 68.7866976,167.834234 66.8931299,171.36593 C66.7440397,171.64313 66.9230701,172.104722 67.2896854,172.061697 C70.3270926,171.703365 72.7302554,169.844092 75.9491371,170.364688 C77.3581617,170.592718 78.5777683,171.452593 79.5511318,172.453835 C80.5202181,173.452003 80.7016926,174.803586 81.2931652,175.982457 C80.7041367,175.42068 80.013678,174.952328 79.2608947,174.614893 C75.6711206,173.007621 70.7682529,174.208004 67.9764779,176.935142 C67.9758669,176.934527 67.9752558,176.933298 67.9746448,176.932683 C67.5567035,176.468634 67.064828,176.409014 66.8735771,175.734759 C66.7409846,175.268865 66.9151268,174.820796 66.7171546,174.353058 C66.6902695,174.289751 66.6169464,174.267624 66.5564549,174.260863 C65.6081435,174.150843 65.3392923,175.391178 65.4010059,176.110916 C65.4822723,177.053152 66.3768134,178.353721 67.4296102,178.256608 C67.5163758,178.248618 67.5970311,178.22895 67.6715762,178.200062 C67.7351229,178.230179 67.8066128,178.249847 67.8927674,178.241857 C70.5012348,178.008296 72.7986902,176.64319 75.4034915,176.36476 C78.7494665,176.006428 81.9659041,178.218501 81.3994836,181.828255 C81.3952064,181.855914 81.3945954,181.885416 81.3915403,181.914919 C79.6226218,180.978214 77.4461493,180.570096 75.656456,180.332232 C72.9086748,179.966524 68.6424956,180.279988 66.6603292,182.552296 C66.9065724,181.774167 67.0984344,180.860204 66.8747991,180.118339"/>
    <path fill="#FFF" d="M69.3588276,192.688895 C68.7948592,196.076652 66.9512359,198.899783 66.0054851,202.145476 C65.969421,202.268195 66.1186519,202.392122 66.2349276,202.316557 C66.5675881,202.100137 66.8753768,201.854095 67.1669989,201.590523 C67.5761402,202.13399 68.2203202,202.438066 68.983885,202.493683 C69.9576165,202.563808 71.0544635,202.252477 71.177579,203.59694 C71.2136432,203.989881 71.4791498,204.096882 71.8124321,204.268567 C72.9391253,204.85012 74.1093442,202.03908 75.0190308,203.38173 C75.7788648,204.502518 75.8628071,205.713382 77.4291097,205.987836 C77.6703663,206.029548 77.9725588,205.969096 78.0882128,205.726681 C78.5203606,204.822312 78.4252259,204.062424 78.3767258,203.079467 C78.3039758,201.617122 81.9874916,201.757976 82.9481654,201.182468 C83.0321078,201.132293 83.007236,201.024083 82.9226718,200.992648 C82.9208064,200.992043 82.918941,200.991439 82.9170756,200.990834 C81.7282029,198.036522 80.3583877,195.287143 79.6333743,192.1684 C79.2416432,190.481776 79.0650533,188.764925 78.9537519,187.042634 C78.8542647,185.515 79.324342,183.66455 78.7684569,182.234849 C78.6745658,181.994248 78.348745,181.924728 78.1976488,182.162306 C77.4284879,183.377401 77.6759624,185.071883 77.710783,186.451409 C77.7555523,188.276469 78.0515269,190.092462 78.4432579,191.873996 C79.1135533,194.917174 80.2781761,198.279541 82.2324789,200.813708 C80.9546894,200.582175 79.1110662,200.69099 78.1547449,201.235667 C76.8682503,201.968351 77.4651738,203.511702 77.2344877,204.685085 C76.2514293,204.038243 75.9473713,202.227087 74.7721781,201.672134 C73.7922286,201.209672 72.9950869,201.901248 72.5635609,202.678667 C72.0835349,203.544951 72.3179517,203.003297 72.0686118,202.347992 C71.9423873,202.017317 71.6868294,201.681201 71.3684702,201.499844 C71.0308353,201.307605 70.6260465,201.270729 70.2486167,201.347504 C69.2848339,201.543974 68.594641,201.236271 67.7906596,200.970885 C69.7934625,198.731725 70.7031492,195.389912 71.1576816,192.618771 C71.6812333,189.424462 71.9025924,184.781712 69.6827829,182.109712 C69.4726161,181.857021 69.0951863,182.084322 69.0790196,182.352731 C68.9845067,183.913009 69.402975,185.501701 69.5714816,187.052911 C69.7754305,188.925729 69.6678599,190.833609 69.3588276,192.688895"/>
    <g transform="translate(63)">
      <mask id="unique-d" fill="#fff">
        <use xlink:href="#unique-c"/>
      </mask>
      <path fill="#FFF" d="M4.44128696,142.586682 C1.04233043,134.498615 5.5138087,127.229414 9.19763478,120.442333 C9.44415652,127.618299 9.76676522,134.788745 10.1472,141.957351 C10.3760696,146.27618 10.5367652,150.630586 10.8940696,154.953095 C9.06615652,150.520177 5.95876522,146.197667 4.44128696,142.586682 M11.7821565,90.3632621 C11.5155478,89.088039 11.2921565,87.8140428 11.0955478,86.5388197 C11.0584174,81.534842 11.0365043,76.5308643 11.0474609,71.5262732 C11.0578087,66.8522955 11.091287,62.1795446 11.1363304,57.5061803 C11.1722435,56.4720167 11.1825913,55.4378532 11.1704174,54.4030762 C11.2763304,44.8895074 11.4437217,35.3759387 11.679287,25.8648234 C12.0652,10.2787639 13.5613739,-5.46186803 13.1785043,-21.0399535 C13.1620696,-21.7097677 12.2289391,-21.9134108 12.1224174,-21.2043401 C9.86172174,-6.22736989 9.80754783,9.39610595 9.21650435,24.5607714 C8.74537391,36.6431877 8.49093913,48.7305112 8.38685217,60.8215149 C6.96493913,69.262277 6.9965913,78.2661245 8.18902609,86.5259387 C8.26511304,87.0516078 8.35033043,87.5748234 8.4392,88.0968123 C8.54815652,96.7774071 8.74172174,105.457388 9.00163478,114.132463 C8.3552,115.678801 7.60163478,117.188336 6.80302609,118.684377 C3.16485217,125.504582 -0.924365217,132.189229 0.818330435,140.570493 C1.62606957,144.4575 3.76563478,147.841533 5.72502609,151.056887 C6.77137391,152.774359 7.80311304,154.504099 8.74598261,156.29947 C9.90311304,158.504582 10.3279826,160.900455 11.161287,163.239284 C11.2933739,163.611608 11.7218957,163.764954 11.9659826,163.533708 C12.0073739,163.76618 12.0396348,164.000493 12.0828522,164.232965 C12.1942435,164.823652 12.9204174,164.642704 12.9545043,164.097407 C13.4134609,156.733745 12.7700696,149.3204 12.4724174,141.957351 C12.1558957,134.139173 11.8990261,126.315474 11.6689391,118.493002 C11.6397217,117.51895 11.6214609,116.544284 11.5946783,115.570232 C12.8394609,112.568336 13.6350261,109.43947 13.8730261,106.045623 C14.241287,100.795678 12.8358087,95.407723 11.7821565,90.3632621" mask="url(#unique-d)"/>
    </g>
    <path fill="#FFF" d="M123.287217,199.204228 C130.594917,204.39392 140.585667,204.054852 148.074871,199.448771 C156.16415,194.47496 159.650387,184.753586 157.259348,175.746329 C155.773361,170.147437 151.482086,166.276207 148.513198,161.478028 C148.071167,160.763302 146.658646,161.012724 146.958066,161.964676 C148.399603,166.550633 152.330957,169.815687 154.185509,174.227841 C156.13143,178.857705 155.909798,184.255961 154.08241,188.86875 C150.665317,197.4973 140.503558,201.836274 131.624058,200.133616 C122.463041,198.376682 115.870244,189.143786 115.852958,180.198122 C115.844315,175.605457 117.732822,171.228674 120.527614,167.633699 C121.940753,165.817001 123.652695,164.286317 125.538115,162.961146 C127.338339,161.696349 129.430575,160.920029 131.117204,159.501554 C131.672212,159.03564 131.40366,158.07698 130.652949,158.020266 C126.391925,157.700103 122.169177,161.236534 119.472545,164.16313 C116.35549,167.544663 114.321903,171.616529 113.402653,176.091495 C111.591934,184.906655 116.064096,194.074909 123.287217,199.204228"/>
    <path fill="#FFF" d="M128.926418,154.817729 C128.755256,154.252971 127.93577,153.872762 127.55281,154.506649 C126.908796,155.571975 126.717931,156.773089 126.382995,157.956304 C126.110243,158.917319 125.690957,159.917837 126.357752,160.79923 C126.475964,160.956004 126.693919,161.025133 126.882937,160.991803 C127.422899,160.897368 127.784926,160.585054 128.04721,160.178922 C128.278711,160.435069 128.635812,160.575178 129.076647,160.519628 C130.984677,160.278294 132.821901,159.51047 134.747786,159.229017 C136.786342,158.932133 138.838443,158.958673 140.881309,159.179022 C143.01776,159.409245 145.047081,160.127692 147.16383,160.420873 C147.692709,160.493705 148.003018,160.022764 147.954994,159.583302 C148.179106,156.947763 147.514774,154.134464 147.096719,151.544599 C146.922478,150.470015 146.288931,149.837362 145.474371,149.429378 C145.675702,147.951131 144.716454,146.38709 143.325606,145.736537 C141.931064,145.083516 140.248993,144.408892 138.713458,144.377414 C136.908249,144.340381 135.435514,144.5095 133.917833,145.195851 C133.701725,145.293372 133.487464,145.750116 133.555191,145.965527 C133.874119,146.979006 136.418774,146.596945 137.914905,146.488314 C140.242221,146.319813 143.422885,146.679036 144.29409,148.996706 C144.023801,148.923873 143.748586,148.860917 143.475219,148.804132 C140.894239,148.272087 138.334807,148.076427 135.704571,148.189996 C134.337119,148.248632 132.768952,148.358498 131.277746,148.662171 C131.326386,148.438119 131.339315,148.388742 131.310993,148.535641 C131.330696,148.470832 131.353476,148.407875 131.379951,148.345536 C131.387339,148.327637 131.389186,148.319613 131.394112,148.307268 C131.403963,148.296158 131.419355,148.277642 131.447061,148.23567 C131.55727,148.072107 131.663785,147.922739 131.740131,147.73572 C131.919297,147.296258 131.743209,146.767916 131.365174,146.495721 C131.264816,146.422889 131.160149,146.373511 131.054866,146.34265 C132.11324,144.245328 132.913024,142.343049 135.702724,141.752985 C136.915021,141.49622 138.224598,141.830755 139.343311,142.281944 C140.467564,142.73622 141.144825,143.823148 142.255533,144.223726 C142.504889,144.31384 142.863221,144.145956 142.858296,143.845986 C142.829358,142.222074 141.546256,141.176499 139.971932,140.599396 C141.114041,139.827251 139.00899,137.625002 138.288015,137.294788 C136.765408,136.598562 134.369751,137.142334 133.704804,138.854509 C133.525022,139.316809 133.369252,140.077226 133.976324,140.306833 C134.639424,140.557425 135.228026,139.422971 135.604829,139.076709 C136.559152,138.200871 137.879811,138.619965 138.624182,139.511851 C138.74178,139.652577 138.895702,140.031552 139.094571,140.331522 C137.780684,140.005011 136.392915,139.964275 135.418274,140.155614 C132.883471,140.654329 129.5064,143.729948 129.998954,146.604969 C129.335238,147.127756 129.131444,148.338747 129.46638,149.063983 C129.479926,149.093609 129.501475,149.113361 129.516867,149.140518 C129.017541,149.315809 128.542227,149.522579 128.105701,149.770702 C127.135986,150.321882 127.580516,151.701991 128.683836,151.602001 C130.473652,151.439054 132.245614,150.780478 134.040356,150.517541 C136.204513,150.200906 138.409922,150.205227 140.586393,150.358915 C141.497001,150.423106 142.399605,150.561364 143.299131,150.710115 C145.34446,151.04897 145.418959,152.076028 145.750201,153.829556 C146.038345,155.351626 146.239676,156.928629 146.686053,158.420455 C143.923443,156.82617 140.291476,156.476822 137.22533,156.47744 C135.373329,156.47744 133.544724,156.738525 131.742593,157.152681 C131.081956,157.3039 129.754524,157.535359 128.813747,158.034691 C129.082189,156.976155 129.247194,155.872562 128.926418,154.817729"/>
    <path fill="#FFF" d="M141.664457 168.584783C142.008141 170.212328 142.522524 171.798963 143.140811 173.322033 143.439964 174.057763 143.791069 174.766431 144.149025 175.468805 144.427626 176.015726 145.459817 177.110196 145.221751 177.747745 145.156668 177.921451 145.361051 178.077534 145.488933 177.957954 145.623666 177.830822 145.757829 177.70369 145.892562 177.576557 145.994182 177.480893 146.030149 177.319775 145.972488 177.185091 144.731346 174.291888 143.610664 171.472322 143.020351 168.317932 142.462008 165.336618 142.743463 162.338311 142.354679 159.362661 142.295876 158.912663 141.712413 158.87616 141.570259 159.282731 140.579743 162.114885 141.057588 165.709832 141.664457 168.584783M126.755467 177.899055C129.114751 175.847264 130.233876 171.727136 130.966384 168.70767 131.707497 165.650207 132.697558 161.22182 131.283021 158.247091 131.124129 157.913093 130.654911 157.91248 130.526994 158.27712 130.036552 159.668269 130.02508 161.235302 129.939038 162.705507 129.835213 164.482745 129.555862 166.252017 129.169244 167.982066 128.806719 169.601804 128.313983 171.189675 127.748971 172.740774 127.174781 174.316388 126.325255 175.814171 126.008619 177.478033 125.924871 177.916214 126.472101 178.145417 126.755467 177.899055"/>
    <path fill="#FFF" d="M133.571434,178.130704 C134.457076,177.68367 135.179066,178.353934 135.161618,179.200947 C135.144169,180.051976 134.36081,180.565004 133.620169,180.853654 C133.542555,180.884069 133.463737,180.909892 133.383717,180.934568 C132.541997,180.08526 132.243574,178.800969 133.571434,178.130704 M141.762413,179.5005 C140.995298,179.477546 140.216151,179.219884 139.66804,178.696527 C138.784805,177.853531 139.830487,176.864202 140.814199,176.92331 C141.896583,176.987582 142.166727,178.449195 141.952537,179.203816 C141.923657,179.306537 141.885753,179.405814 141.842433,179.501074 C141.815359,179.501074 141.788886,179.501074 141.762413,179.5005 M126.001969,177.279101 C126.272715,180.162731 130.049927,182.594162 133.093116,182.210825 C134.691121,183.271886 137.027962,183.082514 138.874452,182.683683 C140.430341,182.347977 141.99706,181.527936 142.750938,180.253974 C144.716556,179.951551 146.490245,178.640289 145.876553,176.472258 C145.812778,176.246733 145.475849,176.301249 145.50172,176.535956 C145.669583,178.063563 144.486722,179.002966 143.120356,179.35015 C143.207596,178.989194 143.237078,178.601841 143.193157,178.18809 C142.98017,176.186478 140.402063,175.251665 138.943041,176.709261 C137.472588,178.17776 139.271547,179.907365 140.841875,180.222986 C140.980858,180.250531 141.123451,180.271764 141.26785,180.287832 C140.941751,180.602879 140.545859,180.859393 140.15057,181.063112 C138.615137,181.853886 136.343877,182.146553 134.667656,181.699519 C135.156804,181.420625 135.596015,181.032697 135.9534,180.512783 C136.949747,179.063221 135.986491,176.589325 133.931226,176.887157 C131.741791,177.204499 130.926544,179.348428 131.998699,181.079754 C131.034842,181.016056 130.067977,180.652231 129.297252,180.181668 C128.068064,179.43049 127.406841,178.267856 126.870162,177.016848 C126.661387,176.529644 125.958048,176.810834 126.001969,177.279101"/>
    <g transform="translate(126)">
      <mask id="unique-f" fill="#fff">
        <use xlink:href="#unique-e"/>
      </mask>
      <path fill="#FFF" d="M16.6456278,107.994328 C14.9907389,111.175337 13.4006278,114.443682 12.1264611,117.794443 C12.3067389,110.787859 12.2444056,103.766514 12.2774056,96.7660801 C12.29085,93.9897704 12.2975722,91.2140757 12.30735,88.4377659 C13.3437944,89.2748412 14.3551833,90.1377482 15.2932389,91.0775358 C17.32335,93.1121022 18.8884056,95.6337836 19.2929611,98.5417128 C19.7555722,101.873408 18.1214611,105.157129 16.6456278,107.994328 M3.27757222,70.827819 C3.33807222,66.893996 6.73157222,65.3077969 9.74373889,63.544465 C9.73640556,69.8351376 9.73273889,76.1258102 9.73029444,82.4170978 C6.22923889,79.3855447 3.20057222,75.8348942 3.27757222,70.827819 M12.92335,55.0802261 C12.8310722,55.7407836 12.6489611,56.3318412 12.4014611,56.872465 C12.4087944,54.1342881 12.41735,51.395496 12.4246833,48.6560889 C12.9594056,50.755235 13.2264611,52.910965 12.92335,55.0802261 M12.3214056,84.5845137 C12.3464611,76.9622704 12.3690722,69.340027 12.3886278,61.7177836 C12.4674611,61.6476686 12.5456833,61.5775535 12.62085,61.5055934 C15.8077944,58.4297571 16.2722389,54.2849739 15.6006278,50.0387084 C15.2266278,47.6750934 14.4279056,45.4240314 13.6982389,43.1582084 C13.0272389,41.0732084 12.7119056,39.0312615 12.4430167,36.953027 C12.4430167,30.8118102 12.4240722,24.6712084 12.3586833,18.5312217 C12.2187389,5.36435442 12.68685,-8.02085354 11.5672944,-21.1465128 C11.5275722,-21.6164066 10.9054611,-21.579504 10.8657389,-21.1268314 C9.73762778,-8.37327389 10.1299611,4.63306681 9.94846111,17.4315226 C9.86473889,23.3156509 9.82135,29.2016243 9.79507222,35.0875978 C9.42779444,36.5544783 9.49135,38.1296066 9.77796111,39.7139606 C9.76207222,45.1325004 9.75657222,50.5516553 9.75168333,55.9695801 C9.75046111,57.2913102 9.74862778,58.6124252 9.74740556,59.9341553 C9.04096111,60.4538677 8.27096111,60.9151509 7.49423889,61.3549075 C3.99929444,63.3328898 1.08918333,65.4437217 0.299627778,69.687527 C-0.49665,73.96885 1.62268333,78.1511509 4.22173889,81.3192438 C5.81796111,83.2646288 7.75518333,84.8545181 9.72968333,86.4044296 C9.72968333,89.1038588 9.72601667,91.8032881 9.72907222,94.5021022 C9.74007222,104.565456 9.52679444,114.685394 10.0450167,124.745673 C9.10207222,129.249642 8.98840556,133.889536 10.2656278,138.654899 C10.2870167,138.735469 10.3915167,138.705332 10.3976278,138.632757 C10.5247389,137.160341 10.65185,135.68608 10.7960722,134.213664 C10.8535167,134.348974 11.0747389,134.386492 11.0949056,134.208129 C11.3497389,131.894947 11.54835,129.577461 11.7041833,127.256284 C12.0280722,125.375478 12.4265167,123.508819 12.9551278,121.669222 C14.5342389,116.176877 17.5946833,111.587416 19.9902389,106.488085 C24.3327944,97.2445845 19.0014611,90.287204 12.3214056,84.5845137" mask="url(#unique-f)"/>
    </g>
    <path fill="#FFF" d="M242.110975,155.771197 C242.69001,164.878379 246.033093,173.677384 251.167202,181.168172 C252.210691,182.691254 253.51888,184.383157 255.400591,184.85279 C257.526169,185.383198 259.371728,184.411397 260.950134,183.040562 C264.204371,180.214174 266.538893,176.112105 268.244748,172.208939 C270.059057,168.060214 271.055977,163.560339 271.574964,159.075198 C272.076794,154.737392 272.383162,149.815155 271.019826,145.604426 C270.194472,143.054293 268.750867,140.911787 266.541344,139.373972 C264.690883,138.085399 262.099626,137.405814 260.144387,138.750251 C259.801868,138.985988 260.037159,139.43352 260.360683,139.510258 C262.251584,139.955334 263.984399,140.288681 265.59957,141.452018 C267.366085,142.725243 268.370971,144.752336 268.943266,146.800914 C270.102561,150.951481 269.627079,155.692618 269.086033,159.908872 C268.535797,164.193882 267.379566,168.38558 265.610599,172.32558 C264.755833,174.229279 263.692125,176.020634 262.491163,177.723588 C261.198905,179.555461 259.64991,181.592989 257.57335,182.546988 C255.181844,183.646479 253.404912,180.421671 252.341203,178.818783 C251.063037,176.89237 249.988912,174.849316 249.029369,172.747942 C247.225476,168.79812 246.030642,164.602739 245.334575,160.320798 C244.612773,155.882927 244.313145,151.042952 245.641555,146.695324 C246.241423,144.730235 247.301455,142.994131 248.825941,141.619612 C250.330819,140.263511 252.237038,139.865091 254.042769,139.095262 C254.797046,138.77358 254.812977,137.584458 254.013971,137.300223 C250.282413,135.973589 246.452204,139.301532 244.530054,142.232283 C241.934507,146.190085 241.820538,151.209932 242.110975,155.771197"/>
    <path fill="#FFF" d="M248.87519,136.118433 C248.66989,135.438643 247.742374,135.294817 247.375156,135.921134 C246.879626,136.76319 247.004883,137.844954 247.040322,138.787195 C247.052542,139.114183 247.078816,140.261714 247.644002,140.199021 C247.98128,140.161528 248.163972,139.908911 248.292285,139.61327 C248.410821,139.850521 248.659503,140.032454 248.933847,140.047205 C250.118599,140.113586 251.141432,139.752793 252.27547,139.455923 C253.848214,139.044729 255.39224,138.88185 257.013865,138.918728 C260.027986,138.987568 262.427428,140.504497 265.28513,140.991291 C265.739723,141.06812 266.192482,140.623736 265.915083,140.16706 C265.556419,139.577621 265.085329,139.084066 264.545195,138.661194 C264.642346,138.601575 264.72361,138.519213 264.773713,138.411036 C265.759886,136.252425 265.136654,134.02989 263.70872,132.414619 C263.83581,132.418307 263.967789,132.356843 264.049053,132.240677 C265.537478,130.104807 263.777764,127.386873 261.75165,125.75009 C261.821305,125.716285 261.875685,125.648675 261.871408,125.566928 C261.701547,122.514016 259.478075,119.083102 256.105902,119.00197 C254.460448,118.962633 253.10278,119.510891 252.03412,120.790569 C251.266079,121.709454 250.918413,123.016176 251.932081,123.864378 C252.146546,124.043238 252.395228,124.044467 252.609082,123.864378 C252.96408,123.565049 253.249422,123.233144 253.428449,122.796136 C254.068789,121.234338 255.482059,120.964512 256.96865,121.33268 C258.829792,121.79366 260.101307,123.8779 261.251842,125.372087 C260.716596,124.99347 260.179517,124.697214 259.693762,124.515281 C256.320978,123.24851 250.787045,123.834261 248.892909,127.365976 C248.744434,127.643178 248.922849,128.104772 249.290067,128.061747 C252.326795,127.703412 254.730515,125.843515 257.948713,126.364729 C259.357706,126.59276 260.577285,127.45264 261.550627,128.453887 C262.519691,129.45206 262.701773,130.803036 263.293232,131.982528 C262.704217,131.420748 262.013162,130.952394 261.261007,130.614957 C257.671314,129.007676 252.767945,130.208066 249.976233,132.935219 C249.975622,132.933989 249.975622,132.933375 249.975011,132.93276 C249.556468,132.468708 249.065215,132.409088 248.873357,131.734829 C248.740767,131.268933 248.914906,130.820861 248.716938,130.353121 C248.690054,130.289813 248.616732,130.267686 248.556853,130.26031 C247.608563,130.15029 247.339107,131.391246 247.40143,132.110373 C247.482695,133.053229 248.376605,134.353805 249.429378,134.256692 C249.516141,134.248702 249.596795,134.228419 249.671949,134.200145 C249.735494,134.230263 249.806372,134.249931 249.892524,134.241941 C252.501544,134.008378 254.798948,132.643265 257.40308,132.364834 C260.748979,132.006499 263.965345,134.218585 263.399548,137.828359 C263.39466,137.856018 263.39466,137.88552 263.391605,137.915023 C261.622115,136.978313 259.445692,136.570193 257.656038,136.332328 C254.908319,135.966618 250.642847,136.280083 248.660114,138.552403 C248.906963,137.774271 249.098209,136.860303 248.87519,136.118433"/>
    <path fill="#FFF" d="M251.359249,148.688727 C250.795285,152.076468 248.951677,154.899586 248.005312,158.145264 C247.96987,158.267982 248.1191,158.391909 248.235375,158.316344 C248.568654,158.100529 248.875819,157.854489 249.167438,157.590917 C249.576576,158.134383 250.220751,158.438457 250.98431,158.493469 C251.958655,158.563593 253.054871,158.252869 253.178607,159.597326 C253.214049,159.990265 253.478932,160.096661 253.812212,160.268949 C254.939518,160.849895 256.109727,158.038868 257.020028,159.381511 C257.778612,160.502295 257.863175,161.713152 259.429465,161.987605 C259.670098,162.029922 259.97291,161.968865 260.087941,161.727056 C260.520707,160.822087 260.425573,160.062203 260.377074,159.07925 C260.304946,157.616912 263.98781,157.75837 264.948476,157.18226 C265.031796,157.132085 265.007546,157.023876 264.922361,156.992441 C264.921739,156.991836 264.919252,156.991232 264.917386,156.990627 C263.728523,154.036933 262.358719,151.287567 261.633712,148.168234 C261.241984,146.482222 261.065395,144.764776 260.954095,143.042493 C260.854609,141.51547 261.32406,139.664424 260.768801,138.235334 C260.674911,137.99413 260.348471,137.92461 260.197998,138.162187 C259.428843,139.377276 259.676316,141.072356 259.711136,142.45127 C259.755905,144.276926 260.051255,146.092306 260.443605,147.874436 C261.113895,150.9176 262.278508,154.279346 264.232795,156.813502 C262.955016,156.58197 261.111408,156.690784 260.155094,157.235458 C258.86861,157.968139 259.465529,159.512088 259.234223,160.685465 C258.251794,160.038627 257.947739,158.227479 256.771933,157.671923 C255.792614,157.209464 254.9961,157.901037 254.563956,158.679057 C254.083934,159.544732 254.318971,159.003685 254.068389,158.348383 C253.942788,158.017105 253.687232,157.680991 253.368875,157.499635 C253.031243,157.307397 252.625836,157.271125 252.249031,157.3479 C251.285256,157.543765 250.595069,157.236063 249.791716,156.970678 C251.793259,154.731529 252.70356,151.390336 253.158088,148.618603 C253.681014,145.424309 253.902993,140.782185 251.683202,138.109594 C251.473037,137.856904 251.09561,138.084808 251.079443,138.352612 C250.98431,139.912883 251.403396,141.501566 251.572523,143.05277 C251.775849,144.926183 251.668279,146.834054 251.359249,148.688727"/>
    <g transform="translate(247)">
      <mask id="unique-h" fill="#fff">
        <use xlink:href="#unique-g"/>
      </mask>
      <path fill="#FFF" d="M10.5609375,33.5585822 C10.4953125,33.946765 10.4234375,34.3331051 10.3540625,34.7200594 C10.3353125,27.7407548 10.3634375,20.760836 10.4446875,13.7821457 C10.4884375,10.0937954 10.5596875,6.40544518 10.6165625,2.71709492 C12.2246875,13.1998716 12.3365625,23.0500086 10.5609375,33.5585822 M5.9034375,103.325217 C4.4803125,98.9870289 3.7509375,94.4651914 3.4434375,89.8972878 C2.7521875,79.6104452 4.8803125,69.3776533 7.2759375,59.5054046 C7.4009375,76.6738919 7.8309375,93.9719782 9.3503125,111.058161 C8.0290625,108.587181 6.8078125,106.083034 5.9034375,103.325217 M11.1221875,1.82280051 C11.0296875,1.62625228 10.7821875,1.62379543 10.6309375,1.73742487 C10.6571875,-0.0640624365 10.6790625,-1.86554975 10.6896875,-3.66703706 C10.7215625,-9.33131117 11.4165625,-15.6147122 10.4384375,-21.1929964 C10.3621875,-21.6272452 9.7884375,-21.5234431 9.6928125,-21.1678137 C8.3303125,-16.0618594 8.5809375,-10.1150472 8.2528125,-4.82851421 C7.8915625,0.979485787 7.7590625,6.81451117 7.6171875,12.6341812 C7.3265625,24.6174807 7.2084375,36.6063081 7.2290625,48.5957497 C5.8746875,53.8804401 4.4359375,59.1442472 3.2328125,64.4627193 C1.1153125,73.8221 -0.0884375,83.3933843 0.9078125,93.0303893 C1.7146875,100.836425 4.2046875,110.014613 9.7784375,115.564029 C9.9228125,116.996374 10.0746875,118.427491 10.2353125,119.856151 C10.3859375,121.188993 12.2009375,121.158897 12.1946875,119.788587 C12.0834375,96.0983843 10.7803125,72.3977396 10.4603125,48.7013944 C10.4515625,48.0730543 10.4484375,47.4447142 10.4415625,46.8163741 C11.8234375,41.1533284 13.0771875,35.4608005 13.8503125,29.6405162 C15.0565625,20.5544604 15.0853125,10.2031254 11.1221875,1.82280051" mask="url(#unique-h)"/>
    </g>
    <path fill="#FFF" d="M304.003959,177.380055 C304.089065,183.032672 306.329363,188.232075 310.891392,191.66032 C315.29423,194.969589 320.869567,196.296117 326.31449,195.94532 C336.181844,195.310573 344.75547,188.874794 348.420522,179.739349 C350.328357,174.983349 350.651636,169.319079 348.593182,164.559399 C346.861681,160.55467 343.538276,157.180393 339.208298,156.204662 C338.352955,156.012092 338.060902,157.187753 338.852568,157.49562 C343.999315,159.497372 347.435991,164.307341 348.047037,169.74347 C348.709514,175.636494 346.305739,181.622124 342.483946,186.024874 C335.011794,194.632284 320.807115,197.093383 311.670812,189.631584 C305.521166,184.608193 305.093189,175.679424 307.518393,168.600313 C308.734975,165.051251 311.279571,162.401874 314.448072,160.50806 C315.921195,159.628001 317.497792,158.957684 319.061532,158.260382 C320.729357,157.515245 322.351874,156.817331 323.969493,155.970388 C324.545028,155.669267 324.109703,154.927809 323.563558,155.005696 C322.255135,155.192134 321.025696,155.370599 319.761357,155.764326 C318.429668,156.179517 317.137777,156.66953 315.861193,157.231296 C313.466602,158.285527 311.214059,159.744524 309.336837,161.572104 C305.170947,165.627736 303.919466,171.762394 304.003959,177.380055"/>
    <path fill="#FFF" d="M332.677554 164.431687C333.220125 165.869528 333.905041 167.25789 334.664003 168.605717 335.324663 169.777688 336.164691 171.260237 337.425371 171.948755 337.724743 172.112092 338.052839 171.858741 337.992837 171.558297 337.734956 170.25816 336.734072 169.02002 336.065113 167.871297 335.290832 166.542547 334.641662 165.150608 334.071004 163.736016 333.520135 162.373883 333.08544 160.964656 332.70181 159.554237 332.510314 158.849624 332.332223 158.14203 332.147111 157.436224 332.008595 156.905678 331.960722 156.413879 331.532409 156.032363 331.474961 155.981096 331.391979 155.993019 331.347935 156.052035 330.657912 156.974231 331.174951 158.815049 331.36517 159.863027 331.648584 161.425456 332.114556 162.9396 332.677554 164.431687M317.56749 173.900422C319.750024 171.66606 320.926814 168.395246 322.137191 165.567828 322.794004 164.032713 323.379288 162.468411 323.933474 160.894173 324.451585 159.423021 325.018211 157.883559 324.999551 156.307458 324.995819 155.991369 324.603971 155.890146 324.429194 156.14103 323.595116 157.336457 323.164083 158.762897 322.655924 160.117922 322.068773 161.684087 321.440571 163.231621 320.793088 164.773567 319.577735 167.666812 317.735425 170.501682 317.009572 173.56446 316.934312 173.878687 317.319941 174.154411 317.56749 173.900422M321.950855 175.654777C322.839648 175.535222 323.174645 175.607453 323.501607 176.457419 323.673432 176.903263 323.855147 177.316103 324.20745 177.646749 324.952231 178.344157 326.059205 177.912636 326.597549 177.186585 327.035764 176.596278 327.280522 175.888285 327.738517 175.3123 328.919041 173.827195 329.549479 176.294898 329.653933 177.060179 329.713269 177.491701 330.293642 177.706527 330.639764 177.48921 332.404989 176.379584 334.058341 174.823492 334.934773 172.891921 335.245665 172.206344 334.367997 171.6397 333.927927 172.279821 333.002668 173.62669 332.04156 174.798585 330.775123 175.753162 330.545199 174.864589 330.113782 174.000924 329.207683 173.690827 327.805887 173.211358 326.779263 174.181503 326.136464 175.350284 325.869455 175.836602 325.260033 177.179112 324.801421 176.183438 324.590657 175.725141 324.476313 175.195235 324.118447 174.817888 323.729059 174.407538 323.311858 174.258093 322.756826 174.205788 322.076324 174.141028 321.237596 174.689615 320.594179 174.258716 320.316663 174.073778 319.917386 174.365195 320.015042 174.688992 320.299357 175.629247 321.073188 175.772465 321.950855 175.654777"/>
    <path fill="#FFF" d="M319.11137,143.501883 C319.50871,142.950913 320.109413,142.516888 320.733268,142.231155 C321.281409,141.980385 321.753837,141.83571 322.08485,141.322717 C322.188096,141.162369 322.128651,140.906777 321.979101,140.792242 C321.631194,140.527608 321.253252,140.437186 320.868426,140.466724 C321.083052,140.041138 321.300807,139.609525 321.627439,139.254469 C322.59795,138.200753 324.025871,137.678115 325.44378,137.508122 C328.145067,137.183206 330.519095,138.306848 332.828673,139.467864 C331.816864,139.192379 330.759376,139.064583 329.715655,138.995862 C328.232669,138.898207 326.436192,138.925936 325.192236,139.800616 C324.825557,140.058017 324.884376,140.703026 325.38809,140.774158 C326.479993,140.928478 327.556253,140.703026 328.649407,140.652993 C329.880222,140.596328 331.101026,140.766321 332.300555,141.019503 C334.269108,141.43484 335.745837,142.480719 335.967346,144.324119 C335.72769,144.161359 335.485532,144.017287 335.248379,143.896122 C333.726599,143.118494 331.908221,142.933431 330.214989,142.978039 C328.436032,143.024456 326.343583,143.316217 324.971978,144.478439 C324.765487,144.653857 324.921294,145.013736 325.170335,145.053521 C326.515034,145.268725 327.815932,144.863033 329.143735,144.680381 C330.607323,144.478439 332.061525,144.547159 333.486943,144.926328 C334.851665,145.289824 336.058703,146.100003 336.855886,147.221837 C337.55608,148.206832 337.639928,149.269589 337.69249,150.39082 C335.427339,148.731881 332.094689,148.132686 329.434075,148.052512 C325.78543,147.943403 322.160563,149.240051 319.26092,151.325781 C319.234639,151.344469 319.207107,151.364361 319.180826,151.384254 C318.874217,149.944136 318.529439,148.597454 320.049343,147.593169 C320.49111,147.301408 320.974801,147.119358 321.108082,146.584061 C321.210702,146.172943 320.690718,145.871537 320.339057,145.864906 C319.60257,145.850439 318.952434,146.152448 318.429948,146.612393 C318.412427,146.426727 318.393029,146.239253 318.384269,146.048764 C318.342971,145.150574 318.576995,144.243342 319.11137,143.501883 M318.18028,152.204682 C317.426899,152.924439 316.831202,153.828055 317.131553,154.842587 C317.459437,155.950556 319.137025,157.091077 319.930453,155.706417 C320.095021,155.418273 319.930453,155.118675 319.674529,154.957725 C319.374178,154.768441 318.926153,154.561677 319.095101,154.121021 C319.293458,153.602603 319.914184,153.200527 320.338431,152.871995 C321.206947,152.199859 322.172452,151.62779 323.172998,151.158802 C325.271704,150.176219 327.578153,149.732549 329.902123,149.749428 C332.127227,149.764498 334.352957,150.374544 336.305867,151.38124 C337.317676,151.902673 338.150526,152.629664 338.53848,153.688202 C338.782515,154.354912 338.595421,155.042118 338.156157,155.577415 C338.062297,155.69195 337.94904,155.781769 337.830776,155.864957 C337.784472,155.815526 337.729408,155.770918 337.659952,155.734147 C335.181426,154.414591 332.060273,154.102334 329.277016,154.019749 C327.779013,153.975744 326.283513,154.101128 324.804908,154.324772 C323.472098,154.526111 322.043551,154.787129 320.994198,155.654575 C320.760174,155.848078 320.737648,156.338767 321.139368,156.375539 C322.417114,156.492484 323.656689,156.151895 324.908779,155.947542 C326.260987,155.72631 327.636346,155.643725 329.006074,155.62986 C331.833133,155.600322 334.420536,156.3243 337.160617,156.812577 C337.175635,156.824634 337.190652,156.835484 337.208173,156.845129 C338.305707,157.451558 339.413879,156.140442 339.785564,155.270584 C340.34622,153.960673 339.728622,152.457863 338.843211,151.439713 C338.726199,151.30408 338.601053,151.174476 338.472152,151.049091 C338.487795,151.032815 338.501561,151.01473 338.515328,150.996043 C339.902576,148.979034 338.581655,146.549701 336.838365,145.001077 C338.125496,143.069064 336.110013,140.893515 334.314787,140.009189 C334.47998,139.890435 334.538799,139.629418 334.356711,139.455205 C331.929495,137.139804 328.425395,135.684615 324.988873,136.058359 C323.480858,136.222926 321.99537,136.840809 320.869678,137.82279 C319.99991,138.580525 318.565106,140.150247 318.989352,141.390835 C318.413678,141.881524 317.928736,142.47228 317.650911,142.916552 C316.946962,144.042003 316.605938,146.394175 317.720367,147.443671 C317.602729,147.625118 317.499484,147.814401 317.412507,148.006698 C316.804921,149.356394 317.281729,151.07682 318.18028,152.204682"/>
    <g transform="translate(313)">
      <mask id="unique-j" fill="#fff">
        <use xlink:href="#unique-i"/>
      </mask>
      <path fill="#FFF" d="M6.00324828,119.117245 C2.2995931,115.254472 1.94890345,109.492819 4.88476552,105.119139 C6.57242069,102.605699 9.03283448,100.722765 11.0575241,98.4656987 C11.5627655,107.958872 12.1300759,117.590045 13.4769724,127.055619 C11.4224897,123.945405 7.9280069,121.124685 6.00324828,119.117245 M10.1320759,56.551112 C10.1283517,56.9129787 10.1215241,57.274232 10.1178,57.6360987 C10.0985586,59.5386587 10.0911103,61.4406053 10.0904897,63.3431653 C9.49214483,61.0652453 9.67152414,58.8026587 10.1320759,56.551112 M13.2181448,58.7266053 C13.3354552,45.4473253 13.8487655,32.1612987 14.6929034,18.908392 C15.5333172,5.70700533 17.361869,-7.526888 17.7901448,-20.7374747 C17.8143517,-21.4918747 16.6338,-21.6237413 16.4680759,-20.894488 C13.6166276,-8.32299467 12.7526276,4.99124533 11.7874552,17.8178853 C11.0233862,27.9783653 10.5305586,38.1504987 10.2804207,48.3324453 C8.22469655,51.656712 7.2800069,55.456312 6.97897241,59.362632 C6.81635172,61.482312 7.21731724,63.6124187 7.86283448,65.6210853 C8.66104138,68.1075387 10.1178,70.393432 9.68828276,73.109272 C9.38973103,74.995272 7.95469655,76.601592 7.59097241,78.5250053 C7.30297241,80.047912 7.6940069,81.6327653 8.16697241,83.0722587 C8.85345517,85.1618853 9.9738,87.0705787 10.613731,89.0080987 C10.6751793,90.546952 10.7422138,92.0864187 10.8148345,93.625272 C10.6546966,94.1466053 10.4225586,94.6802053 10.1022828,95.227912 C8.3115931,98.2939653 5.02752414,100.318579 2.90848966,103.152179 C0.74042069,106.050792 -0.3402,109.660259 0.242627586,113.268499 C0.899937931,117.338579 3.15986897,120.113912 6.26145517,122.719965 C10.2270414,126.050979 14.6972483,129.387512 13.2367655,135.212339 C13.1833862,135.424552 13.4751103,135.615912 13.6296621,135.430685 C14.0548345,134.921619 14.3701448,134.407645 14.6047655,133.892445 C14.8182828,135.024045 15.0411103,136.153192 15.2838,137.277432 C15.3700759,137.676712 15.9839379,137.561405 15.9820759,137.172552 C15.9212483,124.306045 14.5780759,111.420525 13.9604897,98.5681253 C13.8847655,96.9986053 13.8164897,95.4278587 13.7525586,93.857112 C14.1522828,92.180872 14.0300069,90.4261253 13.5626276,88.7130853 C13.2336621,78.721272 13.1300069,68.7214853 13.2181448,58.7266053" mask="url(#unique-j)"/>
    </g>
    <path fill="#FFF" d="M374.791872,156.505193 C382.230187,161.519116 392.200169,160.918914 399.558289,156.104446 C407.505528,150.904528 410.729949,141.063901 408.101432,132.092681 C406.467939,126.515877 402.078236,122.745798 398.985209,118.010869 C398.524402,117.305432 397.120387,117.592379 397.444865,118.538875 C399.0068,123.10127 403.020825,126.272982 404.990517,130.649993 C407.057675,135.242367 406.979948,140.662543 405.277365,145.33629 C402.094274,154.079299 392.058904,158.696146 383.143783,157.219807 C373.946132,155.696358 367.115443,146.60889 366.860055,137.63767 C366.729277,133.031835 368.4991,128.59303 371.195474,124.914725 C372.558157,123.055383 374.227429,121.476257 376.074978,120.097811 C377.839866,118.781771 379.909492,117.949074 381.556556,116.482525 C382.098175,116.000405 381.803924,115.045955 381.052567,115.008633 C376.788089,114.798776 372.664877,118.456279 370.048697,121.460962 C367.024762,124.933692 365.101953,129.071479 364.303096,133.58248 C362.72944,142.471104 367.440537,151.549394 374.791872,156.505193"/>
    <path fill="#FFF" d="M378.802206,111.829774 C378.615364,111.275928 377.785366,110.920538 377.418465,111.55743 C376.802442,112.627874 376.642732,113.821666 376.338112,115.000192 C376.09084,115.957669 375.696807,116.957889 376.387443,117.812168 C376.510155,117.964216 376.730295,118.027112 376.91837,117.989252 C377.45608,117.88117 377.811265,117.563029 378.062854,117.154514 C378.301494,117.401821 378.662228,117.531276 379.102509,117.464717 C381.006693,117.176497 382.825781,116.369237 384.746615,116.040715 C386.779677,115.693264 388.834938,115.666396 390.885883,115.831267 C393.031173,116.002856 395.081501,116.66051 397.208909,116.894994 C397.740453,116.953615 398.03829,116.479151 397.979092,116.0456 C398.133869,113.433302 397.394518,110.668956 396.907989,108.118332 C396.705731,107.059491 396.055175,106.450687 395.228261,106.06843 C395.391054,104.601684 394.389631,103.07937 392.979375,102.472398 C391.566036,101.863595 389.86411,101.240136 388.325593,101.248685 C386.518222,101.259066 385.048152,101.46485 383.546017,102.183568 C383.332659,102.285544 383.130402,102.74291 383.203782,102.953579 C383.5491,103.947693 386.08719,103.503761 387.581926,103.357209 C389.907892,103.130052 393.102087,103.402396 394.03568,105.671517 C393.763125,105.606179 393.485637,105.551221 393.209999,105.502371 C390.612094,105.043173 388.044406,104.916771 385.414436,105.09813 C384.046729,105.191557 382.47923,105.341163 380.994977,105.680676 C381.037525,105.457184 381.049242,105.408943 381.024576,105.554275 C381.042459,105.490158 381.063424,105.426652 381.088707,105.364978 C381.09549,105.346659 381.09734,105.33872 381.101656,105.325897 C381.111522,105.315516 381.126322,105.296587 381.153454,105.254453 C381.258283,105.089581 381.361261,104.938754 381.433408,104.75251 C381.601134,104.312853 381.410593,103.794424 381.025193,103.535514 C380.922214,103.466512 380.817385,103.420715 380.710706,103.392626 C381.715213,101.290208 382.465664,99.3880792 385.242393,98.7316462 C386.449775,98.4458689 387.770001,98.7426376 388.902152,99.1603122 C390.039852,99.5798187 390.745905,100.636828 391.86819,101.00382 C392.121012,101.086867 392.47558,100.911614 392.462014,100.615456 C392.390484,99.0100959 391.077658,98.0092646 389.486726,97.4798438 C390.609628,96.6860179 388.445222,94.5628389 387.713886,94.2556893 C386.171053,93.6059733 383.787123,94.2068385 383.166167,95.917228 C382.999057,96.379479 382.86278,97.1354455 383.476337,97.3467253 C384.146624,97.5775455 384.706533,96.4393212 385.074667,96.0875953 C386.007644,95.1960677 387.340819,95.5764935 388.109769,96.4393212 C388.230631,96.5754929 388.394657,96.9461485 388.601848,97.2380322 C387.277305,96.9485911 385.886782,96.9449273 384.916191,97.1598709 C382.39105,97.7192129 379.09141,100.848719 379.659952,103.679624 C379.00878,104.213319 378.837354,105.416882 379.191305,106.125219 C379.205488,106.153919 379.227687,106.173459 379.244336,106.199106 C378.749174,106.38596 378.278062,106.602735 377.847647,106.859202 C376.891238,107.430146 377.372834,108.783314 378.475386,108.655081 C380.261792,108.447465 382.019216,107.750119 383.809322,107.44297 C385.967562,107.072925 388.17575,107.02041 390.359272,107.115059 C391.272516,107.15536 392.179593,107.268328 393.083587,107.392287 C395.140082,107.67379 395.242444,108.687444 395.619828,110.4131 C395.948497,111.910988 396.191453,113.465666 396.677982,114.929359 C393.87042,113.424753 390.224844,113.173782 387.155211,113.254386 C385.300358,113.302626 383.476337,113.609165 381.683147,114.06531 C381.025193,114.232624 379.7025,114.495808 378.77384,115.013626 C379.015563,113.95967 379.150607,112.86419 378.802206,111.829774"/>
    <path fill="#FFF" d="M391.897837 125.136229C392.327407 126.676559 392.947399 128.173718 393.682798 129.607322 394.037995 130.29984 394.450895 130.964778 394.87213 131.62372 395.199117 132.136964 396.387809 133.150859 396.137119 133.764233 396.069157 133.931516 396.302536 134.074817 396.442947 133.956699L396.885982 133.582559C396.997542 133.489024 397.034088 133.334331 396.964843 133.207819 395.493405 130.48691 394.160454 127.833155 393.412874 124.844832 392.706968 122.021394 392.94227 119.157784 392.426144 116.334347 392.347924 115.907444 391.692028 115.889456 391.54264 116.279785 390.507183 119.004291 391.139356 122.414721 391.897837 125.136229M377.814835 134.89158C380.279692 132.786621 381.366336 128.660779 382.068306 125.639508 382.778851 122.580463 383.719711 118.151824 382.131398 115.234735 381.953149 114.907567 381.452092 114.920361 381.324684 115.285912 380.838328 116.682313 380.866504 118.239556 380.813826 119.703584 380.750122 121.472846 380.497756 123.239062 380.130845 124.968723 379.787211 126.589329 379.30208 128.180081 378.739769 129.737933 378.168883 131.319547 377.300915 132.831705 377.006896 134.494349 376.929716 134.93179 377.519591 135.144419 377.814835 134.89158"/>
    <path fill="#FFF" d="M384.594935,134.596782 C385.467533,134.069495 386.20894,134.802018 386.214356,135.755266 C386.219773,136.712387 385.451284,137.310669 384.718302,137.6566 C384.641875,137.692742 384.563642,137.724367 384.484807,137.754055 C383.618829,136.823395 383.285436,135.388037 384.594935,134.596782 M392.822632,135.904998 C392.054745,135.901126 391.268805,135.633287 390.70613,135.060821 C389.79923,134.137261 390.818063,132.996203 391.803196,133.034281 C392.887023,133.076232 393.197548,134.711663 393.004974,135.566166 C392.978496,135.682982 392.943592,135.795281 392.90267,135.903707 C392.875589,135.904353 392.84911,135.904998 392.822632,135.904998 M377.003332,133.852642 C377.352973,137.086716 381.197219,139.714765 384.229045,139.197158 C385.85629,140.345316 388.187632,140.06586 390.023698,139.565679 C391.569701,139.144236 393.113297,138.178725 393.831836,136.72465 C395.789465,136.329668 397.525634,134.8046 396.852229,132.384368 C396.782421,132.133309 396.446621,132.203657 396.479118,132.466979 C396.689745,134.179857 395.5325,135.269284 394.176061,135.697826 C394.253692,135.289291 394.271746,134.85365 394.216381,134.388965 C393.948584,132.144926 391.345233,131.167153 389.926208,132.846471 C388.496953,134.539342 390.342648,136.432931 391.922351,136.743366 C392.061967,136.771118 392.205193,136.79048 392.349623,136.804679 C392.031877,137.168036 391.64312,137.4675 391.25376,137.707587 C389.740856,138.640182 387.477517,139.033228 385.78889,138.577579 C386.270925,138.250364 386.699401,137.801814 387.04182,137.207405 C387.998067,135.549385 386.966596,132.795485 384.919902,133.18853 C382.740213,133.606746 381.983159,136.039886 383.103093,137.956709 C382.138421,137.912177 381.161713,137.530103 380.37818,137.022822 C379.127657,136.213497 378.434995,134.924643 377.863292,133.533817 C377.640629,132.991685 376.946162,133.327936 377.003332,133.852642"/>
    <g transform="translate(371)">
      <mask id="unique-l" fill="#fff">
        <use xlink:href="#unique-k"/>
      </mask>
      <path fill="#FFF" d="M18.591981,72.5740429 C17.1743619,73.2766013 15.6174571,73.6544325 14.0246476,73.9461987 C13.8042667,70.9052377 13.5968857,67.8667182 13.4718381,64.831861 C13.3969333,63.026939 13.3430762,61.2220169 13.2978857,59.4170948 C16.2154571,60.3741857 19.2531238,61.1316792 21.6302667,63.1850299 C25.5896952,66.6050429 22.088981,70.8411468 18.591981,72.5740429 M3.26931429,82.6491338 C3.99421905,78.9654325 7.79702857,77.5664195 11.1324571,76.8095364 C11.5447429,81.9154455 12.2170286,87.0073156 13.4594571,91.8947052 C10.7461714,88.1481338 2.09869524,88.5998221 3.26931429,82.6491338 M9.07598095,53.9565494 C9.4016,53.5811597 9.78974286,53.2857312 10.2168857,53.0434065 C10.2236952,53.6678351 10.2305048,54.2916532 10.2410286,54.9160818 C9.83245714,54.6279779 9.4418381,54.3124065 9.07598095,53.9565494 M14.8529333,47.7458351 C14.4047429,48.2414714 13.8017905,48.5759649 13.172219,48.8335494 C13.172219,47.0225234 13.1808857,45.210887 13.196981,43.399861 C13.3888857,43.6580558 13.5894571,43.9113675 13.7999333,44.1573545 C14.5972667,45.0881987 16.5441714,45.8737701 14.8529333,47.7458351 M23.882981,62.0704584 C21.3331238,58.6480039 17.0035048,58.0113675 13.2353619,56.4921078 C13.2093619,54.9765104 13.1926476,53.4615234 13.1833619,51.945926 C13.250219,51.9245623 13.3170762,51.9044195 13.3839333,51.8836662 C14.9556952,51.3855883 16.3021238,50.485874 17.4040286,49.2620429 C19.7595048,46.645913 17.930219,44.0657961 15.9096476,42.0979 C13.3882667,39.6410818 14.6226476,34.6511468 14.8894571,31.5711208 C15.1172667,28.9379 15.0795048,26.1575753 13.599981,24.0181597 C13.7856952,18.0540429 14.0104095,12.0911468 14.2202667,6.12886104 C14.3960762,1.16578312 14.5353619,-3.79668442 14.6610286,-8.76098312 C14.7860762,-13.6904896 15.3215524,-18.7329182 14.847981,-23.6496065 C14.7798857,-24.3576584 13.6618857,-24.6848273 13.5083619,-23.8553078 C12.6633619,-19.2932558 12.7178381,-14.5645675 12.444219,-9.9426974 C12.1514095,-4.98389221 11.8356952,-0.0269181818 11.5800286,4.93493896 C11.2649333,11.0473805 10.9776952,17.1610429 10.7368857,23.275926 C10.6947905,23.4211987 10.6873619,23.5799 10.7183143,23.7477571 C10.5740762,27.4528221 10.442219,31.1584974 10.3437905,34.8660039 C10.2113143,39.863874 10.1531238,44.8647961 10.1766476,49.8657182 C8.41669524,50.5444714 6.82202857,51.4942377 5.98940952,53.3461597 C5.69102857,54.0072117 5.73250476,54.563887 6.18750476,55.1382636 C7.33831429,56.5903805 8.75655238,57.5431987 10.299219,58.2665104 C10.349981,60.438887 10.4087905,62.6112636 10.4911238,64.7824195 C10.6124571,67.969874 10.7436952,71.2122636 10.9597429,74.4607571 C9.7396,74.6725623 8.53679048,74.9203805 7.39650476,75.3116403 C3.6153619,76.6087182 -1.02749524,81.5284584 1.08717143,85.9134974 C3.31017143,90.5237701 9.27221905,90.5030169 13.183981,92.9647182 C13.3845524,93.0910688 13.5968857,93.0166013 13.7194571,92.8646143 C13.781981,93.0947312 13.8395524,93.3272896 13.9051714,93.5561857 C14.0772667,94.1623026 15.0058381,94.0756273 15.0089333,93.4237312 C15.0318381,87.6903416 14.6108857,81.942913 14.1880762,76.1985364 C16.9267429,75.6595623 19.5081714,75.008887 21.8803619,73.366939 C25.8298857,70.6317831 26.7504095,65.9195753 23.882981,62.0704584" mask="url(#unique-l)"/>
    </g>
    <polygon fill="#FFF" points="203.968 223 209.476 223.441 213.412 227.93 215.061 237.175 221.411 245.033 227 252.697 226.881 260.974 218.428 270.686 210.777 274.307 198.995 275 190.656 271.456 184.918 263.059 184 253.43 189.814 243.954 194.256 240.719 195.246 232.167 198.383 225.311"/>
    <path fill="#FFE161" d="M229.955304 233.310707C228.905015 234.077958 228.084191 235.134299 227.256653 236.152568 226.367478 237.246982 225.359298 238.459484 225.045005 239.898483 224.730711 241.337482 226.122146 242.496425 227.364673 241.784023 228.447917 241.163253 229.245551 240.070776 230.068816 239.125424 230.931139 238.134903 231.909415 237.263114 232.672263 236.183542 233.862916 234.497397 231.544469 232.149183 229.955304 233.310707M242.814331 246.014614C241.18995 246.186968 239.572612 246.373577 237.955914 246.611373 236.314886 246.852409 234.554126 246.959968 233.36001 248.23772 232.763913 248.875299 232.948953 249.757803 233.61484 250.240523 234.839049 251.12821 236.37059 251.023243 237.819535 250.959096 239.489376 250.885878 241.148972 250.769248 242.814331 250.627995 245.737833 250.379184 245.719265 245.706191 242.814331 246.014614M243.380146 269.656844C241.349867 268.052811 238.094854 266.814052 235.484404 267.023053 234.002098 267.141847 233.418771 268.997444 234.724943 269.843611 235.772911 270.522705 236.938301 270.903861 238.075915 271.396824 239.221103 271.892962 240.294323 272.554904 241.489385 272.925261 243.25136 273.470315 244.948941 270.896874 243.380146 269.656844M231.814287 283.958654C231.306659 282.897845 230.361587 282.033115 229.667606 281.087357 228.980886 280.151494 228.273595 279.099964 227.364826 278.380593 226.207385 277.464524 224.823659 278.308842 225.018482 279.777273 225.190918 281.078697 225.91273 282.351049 226.603081 283.440929 227.343044 284.609365 228.093293 285.806255 229.19386 286.637582 230.881316 287.91179 232.570586 285.539042 231.814287 283.958654M211.60527 292.654043C211.193807 291.323184 210.949538 289.965501 210.639459 288.609646 210.439656 287.734803 210.179379 284.626824 208.612382 285.037116 206.858625 285.49679 207.024633 288.371884 207.002104 289.807602 206.970088 291.870037 207.289653 295.153595 208.917125 296.514936 209.893015 297.331253 211.522859 297.151407 211.866732 295.71447 212.144796 294.551873 211.953887 293.78189 211.60527 292.654043M192.48466 284.15746C189.76749 285.324113 188.202042 288.673908 187.172077 291.203582 186.056385 293.942389 190.69185 295.236103 191.71933 292.430422 192.543675 290.179189 194.214728 288.258072 194.9198 285.989816 195.385707 284.492439 193.72273 283.625505 192.48466 284.15746M178.878496 274.058409C175.790469 274.881861 172.059489 276.477848 169.648417 278.496974 168.022488 279.85886 169.728167 282.512986 171.748522 281.913101 173.394852 281.424414 174.923101 280.458745 176.372217 279.58262 177.829371 278.702983 179.241394 277.827443 180.505661 276.704341 181.739017 275.607576 180.46424 273.635855 178.878496 274.058409M174.744797 256.498066C173.924635 254.965274 172.329942 255.026919 170.836719 255.005729 168.95503 254.978759 167.081146 255.051963 165.200658 255.121956 162.265247 255.23112 162.267648 260.150568 165.200658 259.996454 166.618229 259.921965 176.720751 260.189738 174.744797 256.498066M183.737626 241.43715C182.878927 239.995483 181.229404 239.052561 179.904929 238.014585 178.618438 237.006532 177.262205 235.284981 175.550412 235.031501 173.996162 234.801492 172.716521 235.855898 173.054645 237.382645 173.424527 239.051388 175.258991 240.125157 176.595297 241.133209 178.048671 242.229862 179.761709 243.717296 181.665292 243.977817 183.196502 244.18729 184.597569 242.880578 183.737626 241.43715"/>
    <polygon fill="#FFCE00" points="203.968 223 209.476 223.441 213.412 227.93 215.061 237.175 221.411 245.033 227 252.697 226.881 260.974 218.428 270.686 210.777 274.307 198.995 275 190.656 271.456 184.918 263.059 184 253.43 189.814 243.954 194.256 240.719 195.246 232.167 198.383 225.311"/>
    <path fill="#FFCE00" d="M228,256.178835 C227.939912,255.528145 227.835842,254.876226 227.666728,254.22062 C227.485844,253.523233 227.309296,252.819086 227.115404,252.12047 C222.286672,253.598808 217.716876,255.661478 213.359557,258.127219 C217.442453,254.900189 221.607738,251.778842 225.762491,248.685145 C225.686297,248.536451 225.609483,248.387757 225.53267,248.239063 C225.199397,247.919555 224.885948,247.596361 224.612764,247.279925 C224.291261,246.905732 223.948078,246.464565 223.63277,245.989605 C216.346,249.061182 209.6025,252.972696 203.133424,257.33828 C208.715426,252.303573 214.543356,247.540447 220.615974,243.157658 C220.235622,242.873174 219.883146,242.564111 219.573414,242.244603 C219.073505,241.728475 218.693154,241.228937 218.394571,240.706664 C212.227175,243.239993 206.401723,246.406808 200.777598,249.918937 C205.973673,245.944751 211.354348,242.194834 216.772811,238.495301 C216.251841,237.63693 215.837419,236.721417 215.514058,235.759821 C209.969224,238.498373 204.576159,241.445833 199.321854,244.736765 C196.226386,246.674703 193.236847,249.02493 190.164919,251.226462 C197.989385,244.306044 206.163849,237.802829 214.668488,231.694083 C214.671585,231.298385 214.819018,231.00284 215.055653,230.809906 C214.947866,230.114977 214.88592,229.408987 214.846894,228.698696 C210.164975,231.524498 205.488631,234.359516 200.81043,237.192691 C204.269524,233.996998 207.726759,230.799461 211.171606,227.589021 C211.990539,226.825274 210.920103,225.429885 209.967985,226.041251 C206.84588,228.046163 203.723155,230.051075 200.60105,232.055373 C202.736347,229.834793 204.79483,227.541095 206.78765,225.167519 C207.237382,224.632344 206.630306,223.648628 205.979248,224.12789 C202.335553,226.807455 198.737699,229.548465 195.118163,232.259981 C195.12188,232.51743 195.119402,232.776109 195.10949,233.036016 C197.324698,231.542931 199.546101,230.058448 201.765645,228.570279 C199.551057,230.846773 197.256557,233.046462 194.913739,235.190851 C194.782413,236.15552 194.617635,237.028636 194.502415,237.66458 C194.471441,237.834779 194.434273,237.996377 194.399583,238.161661 C196.796914,236.654443 199.194245,235.147226 201.590956,233.640009 C198.89814,236.099606 196.205944,238.560431 193.513128,241.019413 C192.976052,242.247061 192.271101,243.301437 191.374734,244.205276 C191.675794,244.635383 192.253756,244.886073 192.801363,244.558578 C194.602148,243.483925 196.399217,242.402514 198.199383,241.326632 C193.570739,245.042141 189.045545,248.88238 184.611412,252.824002 C184.599642,252.893433 184.586014,252.96225 184.574244,253.031067 C184.313449,254.655028 184.221769,256.398189 184.027256,258.118617 C189.270411,255.47899 193.884188,251.443359 198.754424,248.268556 C198.767433,248.260569 198.780442,248.252581 198.793451,248.243979 C193.655605,252.155493 188.685635,256.27223 184,260.710317 C184.206282,261.820607 184.41752,262.929668 184.654155,264.0332 C184.766279,264.076825 184.875924,264.129666 184.976897,264.201556 C192.999592,258.442426 201.130693,252.795738 209.797012,248.079924 C202.017148,254.398193 194.590998,261.078366 187.596615,268.316449 C188.437849,269.058691 189.286517,269.790487 190.137662,270.519825 C197.895226,264.528437 205.851019,258.505713 214.429374,253.65718 C206.868181,259.599413 199.60557,265.865455 192.773487,272.659913 C192.846584,272.714598 192.9203,272.768055 192.993397,272.822125 C194.036577,273.395396 195.06427,274.002461 196.138422,274.521047 C203.842712,268.332424 211.696293,262.274677 220.595531,258.078064 C213.689113,263.593262 206.977206,269.339489 200.918217,275.752381 C203.040505,275.773887 205.159076,275.873426 207.276408,276 C210.670459,273.410143 214.136986,270.918595 217.740416,268.657462 C215.006716,270.838104 212.376466,273.138561 209.891791,275.602458 C211.638683,275.162521 213.359557,274.603382 215.00176,273.867899 C217.478382,272.756995 219.660139,271.357919 221.862957,269.938566 C221.734728,269.861147 221.59349,269.805233 221.439863,269.783728 C222.60136,268.874359 223.7833,267.989568 224.972054,267.11215 C225.580988,266.168987 226.131693,265.190801 226.626026,264.23535 C227.117881,263.282971 227.527348,262.34841 227.879824,261.419379 C227.91885,260.84918 227.960974,260.279596 227.997522,259.710012 C223.658168,261.439041 219.560405,263.620912 215.63857,266.105086 C219.665095,262.690652 223.822326,259.418768 228,256.178835"/>
    <path fill="#FFF" d="M185.594316,267.196933 C195.236531,283.452084 222.030983,278.061483 228.196088,261.50236 C229.695527,257.474731 229.005358,252.872251 226.889653,249.216006 C224.952292,245.866798 221.537481,243.676483 218.938047,240.903351 C217.378753,239.238859 216.461988,237.391126 216.018569,235.154235 C215.562935,232.85851 215.565989,230.532144 214.884981,228.275029 C213.950504,225.178926 210.314594,221.878746 207.067744,223.889496 C206.695786,224.119927 206.811221,224.833281 207.307777,224.778737 C213.411195,224.108896 213.24873,231.635881 213.866218,235.749922 C214.499586,239.972437 217.375088,242.867525 220.370301,245.631465 C223.901158,248.889359 226.61725,252.289433 226.523191,257.358902 C226.430354,262.403245 222.685117,266.663756 218.889796,269.543524 C211.197156,275.379665 200.660163,276.65316 192.545482,270.996584 C185.181436,265.862766 183.139023,254.845617 189.366427,247.999505 C192.0361,245.064581 195.348302,243.268327 196.446466,239.18309 C197.32353,235.91968 195.312878,228.669089 201.397362,226.008108 C203.016511,225.299657 206.045927,223.049283 204.300349,223.002707 C198.531021,222.848882 194.634313,229.286839 194.256857,233.092618 C194.018047,235.490075 194.253193,237.954945 193.125102,240.168548 C192.12344,242.134561 190.082249,243.517143 188.477147,244.951818 C182.229588,250.537304 181.409324,260.14184 185.594316,267.196933"/>
    <path fill="#FFF" d="M196.117007 223.791595C196.412397 224.757399 197.216377 225.754455 198.264456 225.983435 198.439342 226.021899 198.601869 225.990647 198.737204 225.917926 199.373097 225.929345 199.916293 225.713587 200.563927 225.476192 201.730038 225.050085 202.85969 224.684077 204.081419 224.432259 206.464933 223.941845 208.719292 224.424446 211.089829 224.628184 211.449489 224.658835 211.688643 224.422643 211.770216 224.135366 212.055718 224.393795 212.551331 224.421441 212.873912 224.001944 215.041755 221.180259 213.836711 218.729389 211.320333 217.38736 211.393253 215.975015 211.89381 214.67145 211.181907 213.237469 210.719665 212.307725 209.720405 211.734373 208.688394 211.537246 208.904065 210.213848 208.81755 208.846578 207.59891 207.954697 206.157802 206.899945 204.027655 206.698611 202.404863 207.453464 201.83324 207.719706 201.95498 208.688515 202.585928 208.797897 203.391145 208.937929 204.14198 208.822538 204.95832 208.834558 206.96858 208.864608 207.174364 210.569639 206.828918 212.079346 206.71583 212.571563 207.073017 213.179172 207.655146 213.134698 210.229614 212.938172 209.857595 215.088543 210.14248 216.873507 209.854505 216.772539 209.557879 216.68239 209.251365 216.607265 207.174982 216.095215 205.015173 216.188369 202.92952 216.579619 202.071159 216.741288 200.651679 217.042388 199.596802 217.617543 199.723486 217.256944 199.667251 216.792372 199.691352 216.449803 199.829159 214.515191 201.35493 213.56922 203.251483 213.6774 203.834848 213.710455 203.882432 212.905718 203.382493 212.736237 202.271999 212.359411 201.089202 212.566154 200.12146 213.128088 200.53241 212.682748 200.464434 211.987393 200.588646 211.433273 200.723981 210.832876 201.085495 210.216853 201.01999 209.593618 201.009484 209.490848 200.931002 209.373052 200.806172 209.385673 199.41759 209.528109 198.303388 212.451965 199.630173 213.230858 199.711127 213.278337 199.806912 213.287352 199.896518 213.26812 198.548723 214.161804 197.700249 215.765267 198.22985 217.401784 198.316984 217.669829 198.589509 218.014201 198.903438 218.08572 198.558611 218.38682 198.317602 218.74201 198.251479 219.161506 198.198951 219.49506 198.334287 219.769115 198.672935 219.883906 199.811238 220.269146 200.92544 219.375462 201.972901 219.002843 203.380639 218.50101 204.86995 218.315301 206.361732 218.302079 207.806549 218.288857 209.311926 218.501611 210.631295 219.093594 212.598915 219.977061 212.415995 221.609972 211.630554 223.29457 211.612633 223.332433 211.60151 223.369093 211.589768 223.405754 211.550836 223.369093 211.508196 223.335438 211.457522 223.308393 209.287826 222.13825 206.452574 222.058317 204.048048 222.397881 202.451211 222.623255 199.707419 223.096841 198.507319 224.497167 197.822607 223.68041 197.452442 222.751869 197.542666 221.637017 197.575418 221.231344 196.979694 220.99455 196.707787 221.300458 196.072513 222.016247 195.83583 222.87327 196.117007 223.791595M197.058041 245.336203C197.451501 245.947649 198.029357 246.233073 198.675669 246.218309 198.529509 247.260967 198.393216 248.312852 198.314277 249.356124 198.269874 249.935583 198.31551 250.588244 198.877949 250.916727 200.082382 251.620444 201.36082 249.900521 202.08237 248.593354 202.544285 249.491454 203.016684 250.384634 203.431112 251.304264 203.559388 251.588457 203.93373 251.559546 204.134161 251.394689 204.818091 250.829993 205.32811 250.16749 205.598845 249.354894 205.815926 249.553583 206.024991 249.757809 206.227271 249.981719 206.355547 250.123815 206.600997 250.080756 206.69227 249.92205 206.985207 249.415793 207.253475 248.897232 207.516193 248.37498 207.991059 249.471155 208.472092 250.564869 208.922907 251.671501 209.098669 252.103327 209.644456 252.11563 209.817135 251.671501 210.393141 250.185944 210.915494 248.678243 211.449564 247.176693 211.91888 247.737698 211.989184 248.937831 212.333308 249.503757 212.657697 250.037696 213.217052 250.267758 213.814027 250.238231 214.480689 250.205629 214.826046 249.543741 215.045595 249.014108 215.530945 247.844117 216.251261 246.596004 216.465876 245.322055 216.885855 245.523204 217.313851 245.647462 217.731363 245.639465 217.946594 245.635775 218.060685 245.41371 217.966946 245.230399 217.381072 244.078862 215.886786 243.224437 215.006125 242.258671 213.929968 241.077608 213.094944 239.67325 212.420264 238.233214 211.7277 236.754424 211.292303 235.113238 211.10174 233.495427 210.942012 232.130438 211.272568 230.409899 210.613923 229.172243 210.504149 228.964942 210.217379 228.949563 210.057652 229.100272 208.970393 230.124475 209.106069 232.137819 209.239895 233.495427 209.419974 235.326075 209.94356 237.082907 210.70828 238.750544 211.43353 240.332062 212.466517 241.754259 213.654916 243.018981 214.180968 243.578141 214.906835 244.320611 215.70239 244.872389 215.328664 245.363884 215.098632 245.90582 214.837147 246.501273 214.690987 246.831601 213.703019 249.867918 212.99442 248.708385 212.361677 247.673724 212.736636 246.410232 211.326222 245.977176 211.059804 245.895362 210.816204 246.072522 210.729248 246.314886 210.254998 247.646658 209.762865 248.974739 209.300333 250.312047 208.82485 249.280462 208.365402 248.240881 207.894236 247.20745 207.773978 246.943556 207.307746 246.93802 207.189338 247.20745 206.89085 247.885331 206.59113 248.563828 206.321011 249.254011 206.087895 249.02149 205.86958 248.780971 205.651882 248.523844 205.520523 248.368829 205.220185 248.407583 205.132613 248.590894 204.811307 249.261393 204.454233 249.839007 203.957165 250.347725 203.454547 249.308759 203.006817 248.242726 202.520233 247.195762 202.367289 246.867279 201.784499 246.855592 201.635872 247.195762 201.455176 247.607904 201.25783 247.985599 201.022247 248.368829 201.046915 248.32823 199.254142 250.422772 199.193704 249.693835 199.090097 248.449412 199.638968 246.944171 199.807946 245.70467 199.856666 245.350351 199.582231 244.899455 199.157318 245.055085 198.558494 245.275304 198.132965 245.125826 197.627263 244.768431 197.283139 244.525452 196.839726 244.997262 197.058041 245.336203"/>
    <path fill="#FFF" d="M195.61498,245.932479 C198.032667,244.212445 199.409911,241.381022 200.284553,238.477334 C200.739206,236.969733 200.921182,235.371802 200.986463,233.793182 C201.035567,232.606414 200.986463,230.986055 200.227361,230.052215 C200.15977,229.968737 200.012455,229.988672 199.966817,230.088348 C199.524296,231.057075 199.632904,232.282467 199.541627,233.340902 C199.417421,234.786828 199.149945,236.166095 198.785414,237.56156 C198.0396,240.416033 196.469403,242.831931 195.055763,245.329439 C194.846635,245.697618 195.268358,246.179178 195.61498,245.932479"/>
    <g transform="translate(193)">
      <mask id="unique-n" fill="#fff">
        <use xlink:href="#unique-m"/>
      </mask>
      <path fill="#FFF" d="M7.15057895,179.120729 C3.95842105,176.714047 2.29394737,174.071835 2.67526316,169.824965 C3.14797368,164.565624 7.18992105,161.307365 11.5290526,158.349482 C11.4376579,165.185341 11.339,172.021812 11.2524474,178.857671 C11.2355,180.182141 11.2040263,181.512729 11.1677105,182.846988 C10.0503947,181.389765 8.62076316,180.229247 7.15057895,179.120729 M14.9748158,136.013341 C18.0804211,138.540541 21.0201842,142.375082 20.3313947,146.791412 C19.8241842,150.043553 16.7772895,152.037294 14.1891842,153.582612 C14.1897895,153.556306 14.1903947,153.53 14.191,153.503694 C14.2763421,147.520024 14.3411053,141.535741 14.3967895,135.552071 C14.5922895,135.706235 14.7865789,135.859788 14.9748158,136.013341 M7.62389474,126.048918 C2.54936842,119.454706 7.62994737,114.036306 11.8746579,109.137294 C11.8722368,116.139553 11.8437895,123.142424 11.8020263,130.144682 C10.2695,128.902188 8.81263158,127.593624 7.62389474,126.048918 M14.5602105,96.9075059 C14.5596053,96.2137647 14.5535526,95.5200235 14.5523421,94.8268941 C14.5620263,94.8434118 14.5729211,94.8587059 14.582,94.8758353 C15.6623947,96.8316471 15.3948684,98.9789412 14.5565789,100.983694 C14.5565789,99.6249647 14.5614211,98.2662353 14.5602105,96.9075059 M11.6955,68.1404941 C11.7475526,74.2599765 11.7832632,80.3800706 11.8129211,86.4995529 C9.42152632,80.8217647 10.5588158,74.5793176 11.6955,68.1404941 M14.1383421,156.599224 C20.0451053,152.631929 25.2878947,148.591835 21.5401053,140.153153 C20.0263421,136.7444 17.2723947,134.434988 14.4252368,132.21 C14.4984737,123.406706 14.5408421,114.603412 14.5523421,105.800118 C17.8056316,101.082188 18.5846053,95.6546118 14.5916842,90.9733882 C14.5735263,90.9513647 14.5565789,90.9299529 14.5390263,90.9079294 C14.4845526,74.4435059 14.2860263,57.9790824 13.9858158,41.5171059 C13.8175526,32.2861882 13.6099474,23.0564941 13.3720789,13.8268 C13.2486053,9.0116 13.1154474,4.1964 12.9695789,-0.618188235 C12.8333947,-5.09324706 12.7220263,-9.57687059 11.6349737,-13.9228471 C11.5544737,-14.2446353 11.0769211,-14.2342353 11.0163947,-13.9051059 C9.44694737,-5.34407059 10.6138947,4.01409412 10.8178684,12.6944235 C11.0345526,21.9241176 11.2125,31.1556471 11.3607895,40.3871765 C11.4993947,49.0277412 11.5998684,57.6689176 11.6773421,66.3107059 C11.4346316,66.1498118 11.0823684,66.1981412 10.9407368,66.5866118 C8.65102632,72.8743294 6.79347368,80.2644471 9.33073684,86.8231765 C9.95355263,88.4333412 10.8705263,89.7241647 11.8328947,90.9788941 C11.8401579,92.5792706 11.8492368,94.1796471 11.8546842,95.7794118 C11.8661842,98.9599765 11.8667895,102.140541 11.8692105,105.321718 C11.5550789,105.713247 11.2439737,106.079694 10.9467895,106.415553 C6.91997368,110.974424 2.23705263,115.228635 3.10257895,122.1012 C3.74294737,127.184353 7.89202632,130.598612 11.7808421,133.554659 C11.7402895,139.425765 11.6906579,145.297482 11.6234737,151.1692 C11.6077368,152.501012 11.5877632,153.832824 11.5708158,155.164635 C6.93813158,158.054612 2.58628947,161.490282 0.702105263,167.074471 C-1.30676316,173.026941 1.29163158,177.929624 5.88315789,181.274753 C8.23218421,182.986471 9.95052632,185.004071 11.0345526,187.2572 C10.8257368,194.104682 10.6792632,201.001106 11.6325526,207.717059 C11.6555526,207.879176 11.8849474,207.936071 11.9224737,207.750094 C12.6161053,204.291788 12.9847105,200.767412 13.1965526,197.2204 C14.3380789,194.340212 14.2878421,191.072165 13.4955526,188.013953 C13.5318684,185.732682 13.5609211,183.456306 13.6244737,181.197059 C13.8550789,172.9988 14.0118421,164.799929 14.1383421,156.599224" mask="url(#unique-n)"/>
    </g>
  </g>
</svg>
